<svg width="539" height="420" viewBox="0 0 539 420" fill="none" xmlns="http://www.w3.org/2000/svg">
<g clip-path="url(#clip0)">
<path d="M485.302 140.982C519.348 168.584 528.973 218.483 518.984 261.048C509.09 303.662 479.671 338.996 443.633 358.031C407.639 377.189 365.074 379.994 325.456 390.453C285.788 400.984 249.061 419.175 208.115 419.091C167.125 419.091 122.052 400.778 82.1583 370.72C42.2939 340.799 7.72121 299.158 5.97044 258.523C4.31312 217.928 35.4777 178.296 57.1705 137.681C78.9076 96.9634 91.1039 55.096 120.193 28.8694C149.282 2.64269 195.24 -8.1545 233.796 6.84761C272.353 21.8497 303.473 62.3515 348.186 85.2525C392.964 108.208 451.295 113.537 485.302 140.982Z" fill="#F5F7FF"/>
<path opacity="0.9" d="M528.338 31.6252H0.00012207V367.954H528.338V31.6252Z" fill="#EAF0FF"/>
<path d="M205.328 316.869C228.523 303.493 236.23 279.858 223.975 258.655L223.893 258.515C212.855 239.418 190.944 233.613 171.685 244.719C161.422 250.637 155.452 259.603 155.171 268.846L154.75 269.089L140.734 239.165L188.6 211.561L178.861 194.711L114.125 232.044L143.858 294.186L162.344 283.525C162.322 280.73 162.802 277.832 163.948 275.111C165.809 270.387 169.345 266.289 174.546 263.289C185.511 256.966 197.655 259.979 203.894 270.61L203.975 270.75C210.224 281.562 206.805 293.644 195.7 300.049C185.929 305.683 175.421 303.88 169.522 297.078L169.097 296.668L149.487 307.977L150.166 308.99C161.211 325.18 183.258 329.597 205.328 316.869Z" fill="#B2C3FB"/>
<path d="M296.422 264.336C322.148 249.5 326.105 220.352 307.478 188.126L307.397 187.985C288.77 155.76 261.56 144.679 235.835 159.515C210.109 174.35 206.111 203.429 224.738 235.655L224.819 235.795C243.446 268.021 270.697 279.172 296.422 264.336ZM286.602 247.346C273.95 254.642 259.121 245.688 246.257 223.432L246.176 223.291C233.312 201.035 233.003 183.801 245.655 176.505C258.307 169.209 273.095 178.093 285.959 200.349L286.04 200.489C298.905 222.745 299.253 240.049 286.602 247.346Z" fill="#B2C3FB"/>
<path d="M390.89 209.857C416.616 195.021 420.573 165.873 401.946 133.647L401.865 133.507C383.238 101.281 356.028 90.2 330.302 105.036C304.577 119.872 300.579 148.95 319.206 181.176L319.287 181.316C337.914 213.542 365.164 224.693 390.89 209.857ZM381.069 192.867C368.417 200.163 353.589 191.209 340.725 168.953L340.644 168.812C327.779 146.556 327.471 129.322 340.123 122.026C352.775 114.73 367.563 123.614 380.427 145.87L380.508 146.01C393.372 168.266 393.721 185.57 381.069 192.867Z" fill="#B2C3FB"/>
<path d="M523.952 350.909L530.699 361.441L538.813 368.279L516.167 393.759L520.952 370.784L512.055 362.536L523.952 350.909Z" fill="white"/>
<path d="M436.939 382.927C437.146 384.582 437.323 388.714 437.549 391.528C438.764 393.857 439.462 395.984 440.406 397.747C438.439 400.071 423.164 414.022 422.068 414.449C420.971 414.877 406.591 414.449 406.591 414.449C406.591 413.354 414.46 408.274 418.109 404.851C419.481 403.141 421.758 384.745 421.758 381.051L436.939 382.927Z" fill="white"/>
<path d="M487.598 244.057C488.12 247.849 490.224 297.827 490.224 305.853C493.254 309.533 521.566 346.1 521.566 350.437C518.222 354.21 513.668 358.297 510.899 360.827C509.148 362.433 465.866 316.125 465.074 313.743C464.283 311.36 458.229 297.193 458.229 293.882C458.229 290.571 471.659 246.665 471.659 246.665L487.598 244.057Z" fill="#3B3744"/>
<path d="M484.568 240.625C484.841 240.58 485.098 240.769 485.135 241.043L485.153 241.19L485.183 241.479L485.228 241.989L485.277 242.634L485.331 243.409L485.434 245.063L485.55 247.068L485.657 249.044L485.87 253.214L486.079 257.539L486.341 263.269L486.678 271.043L487.013 279.214C487.024 279.485 486.812 279.714 486.541 279.725C486.27 279.735 486.041 279.524 486.03 279.253L485.632 269.592L485.317 262.385L484.993 255.414L484.767 250.851L484.644 248.51L484.499 245.899L484.397 244.208L484.319 243.019L484.25 242.085L484.214 241.678L469.09 244.153L467.081 250.772L465.903 254.683L465.122 257.286L464.348 259.875L463.585 262.44L462.835 264.972L461.838 268.358L460.942 271.424L460.209 273.952L459.248 277.303L458.314 280.614L457.651 283.018L457.385 283.995L456.912 285.774L456.656 286.764L456.39 287.825L456.203 288.601L456.077 289.15L455.996 289.519L455.928 289.85L455.871 290.144L455.841 290.319L455.805 290.549C455.801 290.573 455.798 290.596 455.796 290.618L455.781 290.741L455.773 290.847L455.77 290.935C455.77 291.004 455.773 291.079 455.779 291.159L455.794 291.327L455.817 291.509C455.821 291.541 455.826 291.573 455.831 291.606L455.865 291.811C455.872 291.846 455.878 291.882 455.885 291.919L455.93 292.145L455.983 292.385L456.043 292.64L456.11 292.908L456.223 293.337L456.353 293.797L456.448 294.121L456.604 294.631L456.775 295.171L456.961 295.741L457.232 296.545L457.452 297.182L457.768 298.074L458.109 299.015L458.289 299.504L458.797 300.861L459.302 302.185L462.118 309.389L462.518 310.438L462.591 310.64C462.72 311.029 463.855 312.42 465.689 314.494L466.409 315.303C466.659 315.583 466.92 315.873 467.19 316.173L468.03 317.098C468.175 317.257 468.322 317.418 468.471 317.581L469.391 318.585L470.361 319.636L471.376 320.73L472.976 322.444L474.09 323.63L475.82 325.464L477.613 327.354L478.836 328.639L480.078 329.938L481.968 331.908L483.879 333.891L485.799 335.874L487.078 337.19L488.986 339.146L490.246 340.432L491.491 341.7L492.72 342.945L494.521 344.763L495.689 345.936L496.827 347.073C497.014 347.26 497.2 347.444 497.384 347.628L498.469 348.705L499.516 349.737L500.52 350.721C500.683 350.881 500.845 351.038 501.004 351.194L501.937 352.098C504.809 354.87 506.9 356.771 507.693 357.263L507.793 357.32L508.184 356.906L508.665 356.41L509.028 356.044L509.645 355.434L510.623 354.485L511.968 353.196L516.271 349.104L517.421 347.989L517.712 347.701L518.107 347.305L518.098 347.249C518.085 347.184 518.068 347.114 518.047 347.039L517.998 346.881C517.98 346.827 517.96 346.769 517.938 346.71L517.867 346.525C517.854 346.493 517.841 346.461 517.827 346.427L517.738 346.222L517.639 346.003L517.528 345.771L517.406 345.526L517.202 345.134L517.053 344.856L516.892 344.566L516.722 344.263L516.446 343.785L516.146 343.279L515.823 342.746L515.477 342.186L515.109 341.6L514.583 340.777L514.163 340.13L513.569 339.228L513.258 338.761L512.608 337.794L511.921 336.784L511.198 335.733L510.439 334.642L509.237 332.93L508.178 331.439L507.067 329.889L505.907 328.284L504.451 326.287L503.258 324.663L501.945 322.887L501.048 321.68L499.794 320.001L498.384 318.123L496.339 315.415L494.558 313.071L492.529 310.42L490.68 308.02L489.072 305.954L488.062 304.671L487.33 303.753L486.894 303.218C486.836 303.148 486.799 303.063 486.787 302.974L486.782 302.906L486.779 302.317L486.768 301.434L486.731 299.588L486.656 296.8L486.581 294.335C486.572 294.064 486.785 293.837 487.057 293.828C487.328 293.82 487.555 294.032 487.564 294.304L487.668 297.772L487.728 300.175L487.754 301.585L487.764 302.443L487.765 302.73L488.033 303.06L488.673 303.859L489.683 305.14L491.461 307.424L493.369 309.899L495.644 312.875L498.615 316.796L499.774 318.337L500.379 319.143L501.78 321.017L502.698 322.252L503.599 323.469L505.027 325.409L506.361 327.235L507.133 328.299L508.128 329.678L509.318 331.339L510.224 332.616L511.091 333.848L511.714 334.742L512.313 335.608L513.076 336.723L513.796 337.788L514.308 338.556L514.636 339.052L515.107 339.773L515.553 340.466L515.837 340.912L516.241 341.557L516.62 342.173L516.858 342.567L517.084 342.949L517.299 343.317L517.503 343.672L517.694 344.014C517.725 344.07 517.756 344.125 517.786 344.18L517.959 344.501C517.987 344.554 518.015 344.606 518.042 344.657L518.198 344.959L518.342 345.246L518.473 345.521L518.593 345.781L518.7 346.027C518.97 346.666 519.108 347.156 519.108 347.49C519.108 347.619 519.057 347.743 518.966 347.834L518.234 348.568L517.368 349.412L512.676 353.879L511.496 355.008L510.405 356.066L509.798 356.665L509.441 357.024L509.041 357.432L508.622 357.873L508.314 358.208C508.215 358.318 508.071 358.378 507.922 358.37C507.896 358.368 507.867 358.363 507.834 358.354L507.764 358.332L507.685 358.3L507.598 358.258L507.451 358.177L507.285 358.074L507.164 357.994L507.035 357.904L506.897 357.806L506.675 357.64L506.435 357.454L506.176 357.248L505.9 357.021L505.505 356.688L505.188 356.416L504.739 356.023L504.01 355.369L503.352 354.768L502.504 353.979L501.593 353.12L500.621 352.19L499.413 351.021L498.687 350.313L497.552 349.197L495.748 347.407L494.431 346.089L493.717 345.372L492.246 343.886L490.329 341.938L488.734 340.308L487.088 338.618L484.962 336.425L482.65 334.029L480.952 332.261L478.75 329.957L476.37 327.451L474.601 325.576L471.983 322.782L469.8 320.426L468.785 319.323L467.826 318.273L466.752 317.087L465.924 316.164L465.16 315.305L464.464 314.511L463.837 313.787L463.388 313.259L462.987 312.778L462.666 312.385L462.405 312.057L462.251 311.858L462.052 311.591L461.891 311.363L461.806 311.233L461.738 311.12C461.699 311.051 461.672 310.994 461.657 310.95L461.629 310.87L461.41 310.287L459.856 306.298L458.32 302.373L457.877 301.209L457.545 300.325L457.162 299.29L456.807 298.308L456.558 297.607L456.324 296.935L456.178 296.505L456.038 296.087L455.842 295.487L455.72 295.103L455.55 294.554L455.447 294.204L455.35 293.869L455.261 293.547L455.18 293.24L455.072 292.804L455.009 292.531L454.954 292.272L454.907 292.028L454.867 291.797C454.855 291.722 454.845 291.65 454.835 291.58L454.811 291.378C454.798 291.248 454.79 291.127 454.787 291.016V290.888L454.793 290.783L454.804 290.661C454.806 290.639 454.809 290.616 454.811 290.593L454.843 290.366L454.886 290.102L454.942 289.801L455.009 289.463L455.089 289.09L455.213 288.535L455.398 287.754L455.615 286.876L455.811 286.105L456.085 285.055L456.453 283.673L457.012 281.627L457.645 279.353L458.259 277.181L459.129 274.146L460.424 269.687L461.522 265.946L461.891 264.694L463.022 260.881L463.791 258.302L464.569 255.704L465.353 253.096L467.307 246.633L468.239 243.574C468.287 243.415 468.412 243.293 468.569 243.247L468.629 243.233L484.568 240.625Z" fill="#1B3C87"/>
<path d="M437.574 246.729C436.802 250.998 421.531 379.98 421.531 384.067C423.317 386.365 433.625 386.695 435.415 385.599C437.205 384.504 453.217 308.968 454.55 304.547C459.547 301.221 480.03 254.854 480.025 247.82" fill="#3B3744"/>
<path d="M463.496 165.283C489.069 165.283 488.189 238.968 486.733 244.332C485.277 249.696 436.885 250.408 436.782 246.238C435.774 206.989 433.074 165.283 463.496 165.283Z" fill="#46DBC9"/>
<path d="M477.758 244.877C478.029 244.877 478.25 245.097 478.25 245.368C478.255 252.614 458.385 297.326 452.875 302.253L452.71 302.392L452.601 302.806L452.418 303.556L452.061 305.099L451.421 307.975L450.157 313.792L444.851 338.506C444.794 338.771 444.532 338.939 444.267 338.882C444.001 338.825 443.832 338.564 443.89 338.298L449.453 312.39L450.712 306.622L451.147 304.684L451.431 303.455L451.59 302.795L451.682 302.431L451.774 302.085L451.812 301.954C451.845 301.845 451.915 301.75 452.01 301.687C454.036 300.337 458.991 291.045 463.98 280.328L464.676 278.824C465.14 277.816 465.603 276.798 466.063 275.776L466.75 274.24L467.43 272.701C467.768 271.932 468.104 271.163 468.435 270.396L469.091 268.868C469.959 266.836 470.792 264.834 471.573 262.903L472.149 261.469C475.165 253.899 477.268 247.637 477.266 245.369C477.266 245.097 477.486 244.877 477.758 244.877Z" fill="#1B3C87"/>
<path d="M429.208 293.822C429.477 293.854 429.67 294.098 429.638 294.368L428.206 306.363L426.179 323.486L424.583 337.112L423.38 347.489L422.606 354.243L421.85 360.928L421.29 365.969L420.945 369.142L420.753 370.948L420.594 372.495L420.44 374.05L420.374 374.773L420.328 375.333L420.315 375.517L420.491 375.555L420.77 375.611L421.228 375.696L421.56 375.753L422.099 375.84L422.684 375.928L423.316 376.017L423.994 376.108L424.472 376.169L425.487 376.293L426.58 376.42L427.981 376.573L434.686 377.263L434.721 377.189L434.767 377.081L434.804 376.99L434.879 376.795C434.892 376.76 434.905 376.723 434.918 376.686L435.001 376.447L435.089 376.18L435.183 375.885L435.282 375.562L435.379 375.237L435.532 374.707L435.639 374.324L435.927 373.266L436.241 372.066L436.443 371.278L436.844 369.67L437.315 367.734L437.899 365.278L438.369 363.266L438.866 361.109L439.755 357.192L440.521 353.769C440.58 353.504 440.843 353.337 441.108 353.396C441.373 353.455 441.54 353.718 441.481 353.982L440.652 357.689L439.794 361.473L439.265 363.771L438.77 365.893L438.234 368.147L438.017 369.041L437.608 370.699L437.352 371.71L437.051 372.869L436.936 373.299L436.716 374.105L436.56 374.661L436.41 375.176L436.268 375.65L436.177 375.943L436.088 376.218L435.962 376.597L435.881 376.828L435.803 377.04L435.728 377.235L435.656 377.412L435.587 377.572C435.576 377.597 435.565 377.622 435.554 377.645L435.489 377.779C435.478 377.799 435.468 377.82 435.457 377.839L435.396 377.946C435.317 378.078 435.245 378.163 435.179 378.203C435.085 378.261 434.973 378.285 434.862 378.271L433.768 378.155L427.703 377.532L427.039 377.46L426.174 377.363L425.091 377.236L423.848 377.08L423.163 376.988L422.731 376.928L422.122 376.838L421.559 376.749L421.043 376.661L420.724 376.603L420.427 376.545C420.38 376.535 420.333 376.526 420.287 376.516L420.021 376.459L419.684 376.379C419.466 376.323 419.313 376.127 419.313 375.902C419.313 375.859 419.315 375.801 419.319 375.73L419.334 375.476L419.359 375.14L419.394 374.726L419.464 373.958L419.555 373.02L419.708 371.512L419.846 370.194L420.178 367.099L420.583 363.422L421.139 358.45L422.183 349.289L423.291 339.703L424.659 327.994L425.875 317.664L427.606 303.079L428.661 294.251C428.691 294.001 428.904 293.818 429.15 293.818L429.208 293.822Z" fill="#1B3C87"/>
<path d="M435.396 243.79C435.663 243.839 435.839 244.095 435.79 244.362L435.76 244.538L435.635 245.402L435.338 247.641L434.06 257.825L433.375 263.392C433.342 263.662 433.097 263.853 432.827 263.82C432.557 263.787 432.366 263.542 432.399 263.273L433.563 253.843L434.336 247.719L434.677 245.148L434.79 244.381L434.823 244.183C434.872 243.917 435.129 243.74 435.396 243.79Z" fill="#1B3C87"/>
<path d="M418.186 393.877C418.454 393.92 418.637 394.172 418.594 394.44L418.431 395.447L418.271 396.4L418.114 397.295L417.998 397.929L417.883 398.53L417.807 398.912L417.733 399.28L417.621 399.803L417.548 400.133L417.44 400.599L417.332 401.03L417.262 401.297L417.192 401.55L417.122 401.786L417.054 402.006L416.985 402.21L416.918 402.398C416.907 402.428 416.896 402.457 416.884 402.486L416.818 402.649L416.752 402.796C416.686 402.934 416.621 403.048 416.557 403.136L416.526 403.178L416.478 403.229L416.217 403.47L415.941 403.719L415.649 403.975L415.341 404.24L415.017 404.514L414.674 404.797L414.125 405.242L413.736 405.553L413.326 405.876L412.672 406.384L411.814 407.042L408.378 409.663L407.169 410.598L406.429 411.183L406.104 411.446L405.788 411.711L405.543 411.926L405.462 412L407.207 412.043L408.993 412.082L410.158 412.104L411.853 412.131L413.485 412.151L414.698 412.159L415.63 412.161L416.485 412.158L417.404 412.15L418.315 412.131L418.853 412.112L419.212 412.094L419.505 412.074L419.679 412.056L419.814 412.037L419.881 412.023C419.9 412.018 419.916 412.014 419.929 412.009L419.968 411.991L420.018 411.962L420.116 411.897L420.241 411.808L420.504 411.606L420.909 411.28L421.316 410.943L421.881 410.464L422.524 409.911L423.493 409.066L424.434 408.235L426.218 406.642L427.671 405.329L429.547 403.617C429.605 403.564 429.663 403.511 429.721 403.457C429.921 403.274 430.233 403.287 430.416 403.486C430.6 403.686 430.587 403.997 430.387 404.18L428.731 405.694L427.682 406.647L426.201 407.981L424.845 409.188L423.888 410.029L423.141 410.676L422.574 411.16L421.871 411.749L421.357 412.167L420.995 412.45L420.751 412.632L420.595 412.742L420.463 412.828L420.389 412.873C420.377 412.879 420.366 412.885 420.356 412.891L420.298 412.919C420.29 412.923 420.282 412.926 420.274 412.929C420.24 412.942 420.197 412.954 420.147 412.966L420.035 412.988L419.901 413.009L419.746 413.028L419.57 413.046L419.373 413.062L419.037 413.083L418.655 413.101L418.226 413.116L417.582 413.131L417.046 413.138L416.053 413.145H415.287L414.075 413.139L412.741 413.125L411.281 413.106L410.141 413.087L408.974 413.064L406.797 413.017L404.61 412.96C404.344 412.953 404.132 412.735 404.132 412.469C404.132 412.109 404.407 411.703 405.016 411.126L405.199 410.956C405.231 410.927 405.264 410.898 405.298 410.868L405.509 410.683L405.739 410.487L405.988 410.28L406.399 409.946L406.876 409.567L407.707 408.921L411.217 406.261L412.069 405.608L412.504 405.271L413.117 404.789L413.501 404.483L413.866 404.188L414.211 403.905L414.696 403.499C414.748 403.455 414.798 403.411 414.849 403.368L415.142 403.113L415.419 402.867L415.68 402.629L415.775 402.541L415.78 402.533C415.819 402.479 415.859 402.405 415.901 402.313L415.953 402.194L416.006 402.057L416.06 401.904L416.116 401.734L416.203 401.448L416.293 401.126L416.355 400.891L416.449 400.51L416.547 400.096L416.646 399.649L416.783 399.002L416.923 398.301L417.066 397.547L417.248 396.534L417.322 396.107L417.472 395.219L417.623 394.286C417.663 394.037 417.883 393.862 418.129 393.872L418.186 393.877Z" fill="#1B3C87"/>
<path d="M419.851 378.583L435.033 380.475C435.256 380.502 435.432 380.678 435.46 380.901L435.494 381.196L435.528 381.538L435.563 381.93L435.598 382.374L435.635 382.876L435.757 384.742L435.965 388.051L436.04 389.116L436.064 389.426L436.142 389.577C436.429 390.14 436.702 390.717 436.993 391.372L437.253 391.967L438.027 393.771L438.212 394.188C438.242 394.255 438.271 394.319 438.3 394.383L438.469 394.747C438.607 395.038 438.739 395.301 438.873 395.551C438.968 395.729 438.945 395.948 438.813 396.102L438.711 396.218L438.592 396.349L438.381 396.574L438.042 396.926L437.527 397.444L436.786 398.173L436.072 398.864L435.442 399.466L434.937 399.946C434.739 400.133 434.428 400.124 434.241 399.927C434.055 399.73 434.063 399.419 434.26 399.233L435.08 398.453L435.534 398.017L436.093 397.476L436.712 396.868L437.14 396.441L437.504 396.069L437.801 395.757L437.846 395.708L437.837 395.691C437.725 395.471 437.613 395.239 437.496 394.988L437.316 394.594C437.285 394.526 437.254 394.456 437.222 394.384L436.218 392.051C435.844 391.199 435.51 390.488 435.146 389.79C435.115 389.732 435.097 389.668 435.092 389.603L435.017 388.603L434.936 387.399L434.692 383.503L434.642 382.78L434.595 382.161L434.55 381.639L434.527 381.401L420.27 379.625L420.261 379.852L420.236 380.318L420.202 380.839L420.159 381.412L420.107 382.033L420.047 382.699L419.956 383.65L419.878 384.407L419.794 385.196L419.674 386.259C419.643 386.529 419.399 386.722 419.13 386.691C418.86 386.661 418.666 386.417 418.697 386.147L418.805 385.192L418.97 383.619L419.088 382.39L419.168 381.466L419.218 380.8L419.249 380.347L419.278 379.81L419.292 379.461L419.298 379.16C419.299 379.129 419.299 379.1 419.299 379.071C419.299 378.795 419.525 378.578 419.793 378.579L419.851 378.583Z" fill="#1B3C87"/>
<path d="M528.338 31.6252H0.00012207V74.8533H528.338V31.6252Z" fill="#D7DFFF"/>
<path d="M435.056 42.8105H108.007V63.6681H435.056V42.8105Z" fill="white"/>
<path d="M510.275 42.8105H457.535V63.6681H510.275V42.8105Z" fill="#B2C3FB"/>
<path d="M18.5946 60.5242C22.6225 60.5242 25.8878 57.2626 25.8878 53.2393C25.8878 49.2159 22.6225 45.9543 18.5946 45.9543C14.5667 45.9543 11.3014 49.2159 11.3014 53.2393C11.3014 57.2626 14.5667 60.5242 18.5946 60.5242Z" fill="#FB5E64"/>
<path d="M43.7742 60.5242C47.8021 60.5242 51.0674 57.2626 51.0674 53.2393C51.0674 49.2159 47.8021 45.9543 43.7742 45.9543C39.7462 45.9543 36.481 49.2159 36.481 53.2393C36.481 57.2626 39.7462 60.5242 43.7742 60.5242Z" fill="#FB5E64"/>
<path d="M68.9537 60.5242C72.9817 60.5242 76.247 57.2626 76.247 53.2393C76.247 49.2159 72.9817 45.9543 68.9537 45.9543C64.9258 45.9543 61.6605 49.2159 61.6605 53.2393C61.6605 57.2626 64.9258 60.5242 68.9537 60.5242Z" fill="#FB5E64"/>
<path d="M434.925 208.256C435.196 208.266 435.409 208.493 435.4 208.764L435.355 210.199L435.313 211.867L435.303 212.345C435.286 213.182 435.274 214.025 435.265 214.886L435.255 216.19L435.251 217.527L435.255 219.422L435.265 220.848L435.293 223.252L435.317 224.843L435.361 227.202L435.433 230.49L435.569 235.828L435.798 244.261C435.801 244.387 436.007 244.553 436.403 244.733L436.572 244.806L436.761 244.88L436.971 244.954C437.117 245.004 437.276 245.054 437.449 245.103L437.718 245.177C437.81 245.202 437.906 245.226 438.006 245.25L438.313 245.322C438.419 245.346 438.528 245.369 438.64 245.392C438.907 245.447 439.191 245.5 439.489 245.551L439.948 245.627C440.105 245.651 440.266 245.675 440.43 245.699L440.933 245.768L441.458 245.835L442.003 245.898L442.569 245.959C442.665 245.968 442.762 245.978 442.86 245.988L443.456 246.043L444.07 246.096L444.704 246.145L445.356 246.191L446.025 246.234L446.712 246.273C453.34 246.633 461.712 246.509 468.891 245.935C469.162 245.913 469.399 246.115 469.42 246.385C469.442 246.656 469.24 246.893 468.969 246.914C461.973 247.474 453.856 247.608 447.289 247.287L446.4 247.24L445.638 247.194L444.901 247.146L444.187 247.094L443.725 247.057L443.274 247.018L442.617 246.958L442.194 246.915L441.579 246.848L441.183 246.801L440.798 246.753L440.424 246.702L439.885 246.623L439.541 246.568L439.207 246.511L438.886 246.452C438.833 246.442 438.781 246.432 438.729 246.422L438.425 246.36L438.133 246.297C438.085 246.286 438.038 246.275 437.991 246.264L437.716 246.197L437.454 246.128L437.203 246.058C436.999 245.998 436.808 245.936 436.63 245.871L436.422 245.793L436.226 245.712L436.043 245.63C435.954 245.588 435.871 245.545 435.791 245.502L435.639 245.413C435.105 245.085 434.825 244.711 434.815 244.286L434.518 233.292L434.441 230.125L434.371 226.866L434.328 224.526L434.301 222.639L434.287 221.435L434.272 219.419L434.268 218.04V217.519C434.268 217.1 434.269 216.687 434.271 216.278L434.28 215.065C434.282 214.865 434.284 214.666 434.286 214.468L434.302 213.286L434.32 212.323L434.33 211.844C434.347 211.046 434.368 210.252 434.393 209.452L434.417 208.731C434.426 208.46 434.653 208.247 434.925 208.256Z" fill="#1B3C87"/>
<path d="M462.021 162.827C473.654 162.827 480.805 177.149 484.261 200.76C485.48 209.082 486.149 218.15 486.313 226.787L486.333 228.024L486.344 229.128L486.351 230.745L486.346 232.05L486.336 233.063L486.317 234.284L486.289 235.449L486.261 236.338L486.238 236.976L486.202 237.788L486.163 238.551L486.119 239.264L486.083 239.762L486.046 240.229L486.007 240.663L485.979 240.933L485.937 241.309L485.892 241.647L485.862 241.852L485.83 242.04L485.798 242.21L485.766 242.362L485.732 242.495C485.485 243.41 484.404 244.128 482.502 244.761L482.157 244.872L481.796 244.981C481.673 245.017 481.547 245.053 481.418 245.088L481.023 245.195L480.611 245.3C480.347 245.365 480.08 245.205 480.015 244.941C479.949 244.678 480.11 244.412 480.373 244.346L480.565 244.298L480.937 244.201L481.292 244.102L481.63 244.003C481.685 243.987 481.74 243.97 481.793 243.953L482.106 243.853L482.403 243.753C482.547 243.702 482.685 243.652 482.816 243.601L483.07 243.499C483.111 243.482 483.151 243.465 483.191 243.448L483.42 243.346C484.226 242.972 484.686 242.596 484.783 242.238L484.814 242.112L484.845 241.966L484.875 241.802L484.905 241.618L484.934 241.417L484.976 241.082L485.016 240.708L485.068 240.152L485.116 239.534L485.171 238.679L485.202 238.124L485.239 237.34L485.264 236.719L485.293 235.851L485.318 234.94L485.342 233.747L485.356 232.753L485.365 231.466L485.367 230.939L485.367 230.422C485.366 229.555 485.359 228.665 485.345 227.76C485.215 218.877 484.545 209.487 483.288 200.902C479.901 177.76 472.935 163.81 462.021 163.81C446.393 163.81 438.747 174.728 436.262 196.385C436.231 196.654 435.988 196.848 435.718 196.817C435.448 196.786 435.254 196.543 435.285 196.273C437.82 174.182 445.772 162.827 462.021 162.827Z" fill="#1B3C87"/>
<path d="M468.93 170.584C468.93 173.006 457.712 172.79 457.909 169.557L458.937 152.526H468.93V170.584Z" fill="white"/>
<path d="M467.455 150.562H457.462C457.202 150.562 456.986 150.764 456.971 151.023L455.943 168.054C455.856 169.474 457.304 170.443 459.52 170.913L459.826 170.974C460.034 171.012 460.248 171.047 460.467 171.077L460.8 171.119C460.912 171.132 461.025 171.144 461.14 171.155L461.488 171.184C461.605 171.193 461.724 171.201 461.843 171.208C462.189 171.227 462.528 171.237 462.859 171.237L463.187 171.234C463.242 171.233 463.295 171.232 463.349 171.23L463.667 171.217C463.877 171.207 464.082 171.192 464.282 171.173L464.578 171.142C464.626 171.136 464.674 171.13 464.722 171.123L465.004 171.082C466.762 170.802 467.947 170.142 467.947 169.11V151.053C467.947 150.781 467.726 150.562 467.455 150.562ZM457.924 151.544H466.963V169.11C466.963 169.456 466.364 169.779 465.411 169.993L465.185 170.04C465.107 170.055 465.028 170.07 464.947 170.083L464.698 170.122C464.655 170.128 464.612 170.134 464.569 170.14L464.304 170.172C464.214 170.182 464.123 170.19 464.03 170.199L463.747 170.22C463.172 170.258 462.547 170.263 461.898 170.227L461.729 170.216C461.617 170.209 461.507 170.201 461.397 170.191L461.074 170.16C461.021 170.154 460.968 170.148 460.915 170.142L460.605 170.101L460.304 170.055L460.012 170.003L459.731 169.946C459.455 169.887 459.195 169.82 458.953 169.746L458.718 169.669C457.569 169.277 456.888 168.722 456.925 168.113L457.924 151.544Z" fill="#1B3C87"/>
<path d="M481.878 140.884C484.052 130.749 480.304 121.353 473.506 119.898C466.707 118.443 459.434 125.479 457.26 135.614C455.085 145.749 458.834 155.145 465.632 156.6C472.43 158.055 479.703 151.019 481.878 140.884Z" fill="white"/>
<path d="M458.149 123.169C458.319 122.957 458.628 122.922 458.84 123.091C459.053 123.26 459.088 123.569 458.918 123.781C456.542 126.758 454.894 130.244 454.1 133.97L454.028 134.32C453.586 136.401 453.395 138.527 453.458 140.654C453.466 140.925 453.253 141.151 452.981 141.159C452.71 141.167 452.483 140.954 452.475 140.683C452.414 138.625 452.583 136.568 452.977 134.554L453.064 134.123C453.857 130.118 455.601 126.361 458.149 123.169Z" fill="#1B3C87"/>
<path d="M453.902 146.475C454.159 146.389 454.438 146.527 454.525 146.785C455.962 151.057 458.689 153.928 462.087 154.639C463.115 154.854 464.175 154.869 465.21 154.686C465.477 154.638 465.732 154.816 465.78 155.083C465.828 155.35 465.65 155.605 465.382 155.653C464.224 155.859 463.037 155.841 461.885 155.601C458.111 154.811 455.132 151.676 453.592 147.098C453.506 146.84 453.644 146.562 453.902 146.475Z" fill="#1B3C87"/>
<path d="M471.802 118.189C482.622 118.189 488.031 129.576 490.49 141.768C492.457 151.593 497.375 159.944 497.375 168.295C497.375 180.806 489.177 191.874 480.654 191.874C467.45 191.874 462.458 178.999 462.458 173.207C462.458 165.018 464.917 159.679 464.917 149.628C464.917 141.67 459.999 135.751 459.999 124.084C459.999 121.117 464.74 118.189 471.802 118.189Z" fill="#EECB55"/>
<path d="M470.327 116.239C476.044 116.239 480.637 119.348 484.07 124.988C484.211 125.22 484.137 125.522 483.905 125.663C483.673 125.804 483.37 125.73 483.229 125.499C479.962 120.13 475.666 117.222 470.327 117.222C469.396 117.222 468.498 117.276 467.642 117.377L467.251 117.427C467.057 117.454 466.865 117.483 466.675 117.515L466.3 117.581C466.238 117.592 466.176 117.604 466.115 117.616L465.749 117.691C465.448 117.757 465.154 117.828 464.869 117.905L464.529 118C461.178 118.978 459.016 120.757 459.016 122.625C459.016 127.38 459.711 131 461.323 136.226L462.315 139.388L462.481 139.933L462.634 140.446L462.774 140.934L462.905 141.401L463.026 141.854C463.045 141.928 463.065 142.002 463.083 142.076C463.649 144.285 463.934 146.207 463.934 148.169C463.934 149.896 463.876 151.431 463.749 152.994L463.694 153.621L463.632 154.254L463.562 154.896C463.537 155.112 463.511 155.33 463.484 155.551L463.397 156.221L463.302 156.909L463.199 157.619L463.087 158.354L462.966 159.117L462.836 159.911L462.37 162.669L462.253 163.378L462.19 163.768L462.073 164.525C461.664 167.245 461.475 169.387 461.475 171.745C461.479 172.438 461.54 173.13 461.655 173.813C461.7 174.081 461.519 174.334 461.251 174.379C460.984 174.424 460.73 174.244 460.685 173.976C460.561 173.241 460.496 172.497 460.491 171.748C460.491 169.883 460.607 168.153 460.851 166.189L460.942 165.485L461.044 164.758C461.062 164.635 461.081 164.51 461.1 164.385L461.218 163.616L461.432 162.314L461.798 160.16L461.931 159.358C461.952 159.227 461.973 159.097 461.994 158.969L462.114 158.214C462.133 158.091 462.152 157.968 462.17 157.847L462.277 157.133C462.294 157.016 462.31 156.9 462.327 156.785L462.42 156.105C462.45 155.881 462.479 155.661 462.506 155.443L462.583 154.797L462.652 154.163L462.714 153.539C462.82 152.401 462.888 151.294 462.922 150.132L462.938 149.493C462.94 149.385 462.942 149.277 462.943 149.168L462.949 148.507C462.95 148.395 462.95 148.282 462.95 148.169C462.95 146.297 462.677 144.455 462.131 142.319L462.016 141.881L461.893 141.431L461.76 140.962L461.615 140.471L461.458 139.95L461.047 138.628L460.514 136.934C458.782 131.396 458.032 127.622 458.032 122.625C458.032 120.322 460.348 118.291 463.895 117.168L464.237 117.063C464.812 116.894 465.417 116.749 466.049 116.629L466.43 116.56C467.649 116.352 468.958 116.239 470.327 116.239Z" fill="#1B3C87"/>
<path d="M465.971 184.332C466.175 184.153 466.486 184.174 466.664 184.379C469.759 187.918 474.24 189.935 478.946 189.912L479.194 189.909C482.652 189.909 486.198 187.967 489.148 184.529C489.325 184.323 489.635 184.3 489.841 184.476C490.047 184.653 490.071 184.963 489.895 185.169C486.828 188.742 483.106 190.815 479.409 190.889L479.204 190.891C474.126 190.993 469.264 188.845 465.924 185.025C465.745 184.82 465.766 184.51 465.971 184.332Z" fill="#1B3C87"/>
<path d="M489.551 142.683C489.814 142.615 490.082 142.773 490.15 143.036L490.268 143.484L490.388 143.93L490.512 144.376L490.64 144.826L490.842 145.511L490.983 145.978L491.209 146.701L491.368 147.201L491.623 147.984L491.899 148.815L492.304 150.01L493.132 152.426L493.762 154.293L494.161 155.505L494.452 156.407L494.653 157.048L494.842 157.66L495.017 158.246L495.179 158.806L495.281 159.167L495.423 159.691L495.512 160.029L495.595 160.359L495.711 160.84L495.782 161.152L495.849 161.457L495.911 161.757L495.996 162.198L496.047 162.487L496.095 162.772L496.158 163.193L496.196 163.471L496.229 163.748L496.26 164.024L496.287 164.299L496.321 164.711L496.347 165.126L496.361 165.401C496.382 165.861 496.392 166.331 496.392 166.821C496.389 171.12 495.453 175.367 493.646 179.269C493.532 179.515 493.24 179.622 492.994 179.508C492.747 179.394 492.64 179.103 492.754 178.856C494.5 175.084 495.406 170.977 495.408 166.821L495.406 166.4L495.401 166.125L495.394 165.853L495.378 165.449L495.357 165.051L495.339 164.786L495.317 164.523L495.293 164.259L495.266 163.996L495.235 163.731L495.2 163.465L495.162 163.196L495.098 162.789L495.026 162.374L494.944 161.95L494.853 161.515L494.787 161.218L494.679 160.76L494.601 160.446L494.476 159.96L494.386 159.626L494.242 159.108L494.086 158.569L493.918 158.005L493.674 157.213L493.408 156.372L493.117 155.476L492.719 154.275L492.28 152.974L491.266 150.014L490.869 148.836L490.598 148.016L490.429 147.494L490.191 146.743L490.041 146.259L489.898 145.787L489.761 145.324L489.564 144.64L489.377 143.962L489.198 143.282C489.13 143.019 489.288 142.751 489.551 142.683Z" fill="#1B3C87"/>
<path d="M417.402 375.105L438.5 377.734C438.77 377.767 438.961 378.013 438.927 378.282C438.896 378.532 438.682 378.714 438.436 378.712L438.378 378.708L417.281 376.08C417.011 376.047 416.82 375.801 416.853 375.532C416.885 375.282 417.099 375.1 417.345 375.102L417.402 375.105Z" fill="#1B3C87"/>
<path d="M416.728 378.195L437.821 380.823C438.091 380.857 438.282 381.102 438.248 381.372C438.217 381.622 438.003 381.804 437.757 381.802L437.7 381.798L416.607 379.17C416.337 379.137 416.146 378.891 416.18 378.622C416.211 378.372 416.425 378.189 416.671 378.191L416.728 378.195Z" fill="#1B3C87"/>
<path d="M521.531 343.922C521.725 343.732 522.036 343.734 522.227 343.928C522.403 344.106 522.414 344.385 522.262 344.577L522.221 344.623L506.375 360.18C506.182 360.37 505.87 360.367 505.68 360.174C505.504 359.995 505.493 359.716 505.645 359.525L505.686 359.479L521.531 343.922Z" fill="#1B3C87"/>
<path d="M523.002 346.727C523.196 346.537 523.507 346.539 523.697 346.733C523.873 346.911 523.884 347.19 523.732 347.382L523.691 347.428L507.846 362.98C507.652 363.17 507.341 363.167 507.15 362.974C506.975 362.795 506.963 362.516 507.115 362.325L507.156 362.279L523.002 346.727Z" fill="#1B3C87"/>
<path d="M521.149 348.593C521.357 348.389 521.69 348.412 521.871 348.629L521.907 348.679L528.614 359.148L536.671 365.938C536.867 366.102 536.901 366.385 536.761 366.59L536.722 366.64L525.568 379.186C525.388 379.388 525.077 379.407 524.874 379.227C524.687 379.06 524.656 378.783 524.795 378.582L524.833 378.533L535.652 366.364L527.923 359.851C527.898 359.83 527.875 359.806 527.854 359.78L527.826 359.74L521.404 349.717L510.309 360.561L518.827 368.459C518.938 368.561 518.994 368.708 518.983 368.855L518.974 368.919L514.565 390.087L518.022 386.197C518.188 386.009 518.466 385.979 518.667 386.117L518.716 386.155C518.903 386.321 518.934 386.599 518.795 386.8L518.757 386.849L514.075 392.12C513.753 392.482 513.169 392.208 513.218 391.747L513.226 391.693L517.954 368.99L509.262 360.931C509.072 360.755 509.053 360.465 509.21 360.267L509.252 360.22L521.149 348.593Z" fill="#1B3C87"/>
<path d="M433.049 163.908C429.572 162.994 426.145 161.9 422.781 160.632C421.797 158.446 409.178 112.138 407.044 103.202C405.686 103.315 403.95 105.511 405.199 110.158C402.814 112.088 398.924 115.974 404.963 122.11C405.229 123.79 412.778 169.267 413.511 170.25C415.891 173.467 425.176 177.977 427.212 178.787C427.856 177.024 426.872 174.121 433.049 163.908Z" fill="white"/>
<path d="M459.006 184.702C461.071 178.807 441.833 162.277 436.241 161.83C432.966 163.51 425.107 176.518 426.897 182.909C433.074 186.814 455.588 194.443 459.006 184.702Z" fill="#46DBC9"/>
<path d="M406.039 101.214C406.281 101.194 406.502 101.354 406.558 101.591L406.862 102.84L407.309 104.618L407.981 107.225L409.284 112.188L410.701 117.507L411.664 121.093C411.735 121.355 411.579 121.624 411.317 121.695C411.055 121.765 410.785 121.61 410.714 121.348L409.047 115.125L407.554 109.483L406.681 106.129L406.095 103.83L405.854 102.859L405.709 102.268L405.663 102.282C404.386 102.684 403.772 104.357 404.58 107.517L404.627 107.698C404.697 107.96 404.541 108.229 404.279 108.299C404.016 108.369 403.747 108.214 403.677 107.952C402.559 103.776 403.744 101.405 406.039 101.214Z" fill="#1B3C87"/>
<path d="M413.829 130.993C414.091 130.922 414.361 131.076 414.432 131.338L416.198 137.779L417.832 143.688L419.452 149.477L420.44 152.956L421.19 155.551L421.547 156.762L421.84 157.73L421.976 158.169L422.09 158.521L422.176 158.775L422.745 158.986C425.586 160.032 428.471 160.953 431.393 161.746L432.191 161.959C432.454 162.028 432.61 162.297 432.541 162.559C432.472 162.822 432.203 162.978 431.94 162.909C428.447 161.99 425.003 160.892 421.623 159.617C421.499 159.57 421.399 159.475 421.346 159.353L421.295 159.225L421.229 159.04L421.087 158.608L420.944 158.156L420.777 157.61L420.316 156.062L419.813 154.334L419.073 151.749L418.13 148.412L416.554 142.764L414.668 135.927L413.483 131.596C413.412 131.335 413.567 131.065 413.829 130.993Z" fill="#1B3C87"/>
<path d="M401.264 110.757C401.468 110.578 401.778 110.597 401.958 110.8C402.138 111.004 402.119 111.314 401.915 111.494C399.956 113.223 401.638 117.989 404.316 120.235C404.407 120.311 404.467 120.418 404.485 120.535L406.077 130.98L406.728 135.197L407.253 138.556L407.87 142.438L408.292 145.051L408.637 147.163L409.054 149.672L409.444 151.971L409.671 153.289L409.965 154.973L410.18 156.181L410.389 157.339L410.66 158.807C410.709 159.074 410.533 159.331 410.266 159.38C409.999 159.43 409.743 159.254 409.693 158.988L409.409 157.447L409.189 156.229L408.963 154.958L408.575 152.723L408.171 150.348L407.78 148.01L407.552 146.626L407.204 144.486L406.592 140.669L405.968 136.708L405.434 133.266L404.994 130.403L403.541 120.865L403.455 120.789C400.557 118.177 398.815 113.09 401.17 110.843L401.264 110.757Z" fill="#1B3C87"/>
<path d="M411.669 166.03C411.936 165.977 412.194 166.15 412.247 166.416C412.379 167.083 412.591 167.731 412.876 168.347L412.969 168.539L413.01 168.594C413.196 168.836 413.458 169.115 413.78 169.421L414.033 169.655L414.307 169.899C414.355 169.94 414.403 169.982 414.452 170.024L414.755 170.279L415.075 170.542L415.411 170.81L415.762 171.083C415.822 171.129 415.882 171.175 415.942 171.222L416.312 171.5L416.692 171.782L417.082 172.065L417.479 172.349L417.883 172.632L418.291 172.914L418.909 173.332L419.323 173.607L419.737 173.877L420.148 174.141L420.556 174.399L421.159 174.772L421.552 175.009L421.937 175.237L422.311 175.453C422.373 175.488 422.434 175.523 422.494 175.557L422.851 175.756L423.194 175.941C423.25 175.971 423.305 176 423.36 176.029L423.679 176.192C424.353 176.531 424.904 176.759 425.264 176.834L425.341 176.848C425.609 176.89 425.792 177.141 425.75 177.409C425.708 177.677 425.456 177.861 425.188 177.819C424.943 177.78 424.616 177.675 424.226 177.513L423.956 177.398C423.864 177.357 423.768 177.313 423.669 177.267L423.366 177.121L423.047 176.961L422.715 176.788L422.37 176.602L422.013 176.405L421.646 176.196L421.27 175.978L420.887 175.75L420.497 175.514L420.101 175.271L419.702 175.02L419.299 174.763L418.895 174.501L418.289 174.1L417.887 173.828L417.487 173.554L417.091 173.277L416.7 173L416.315 172.723L415.938 172.446L415.57 172.171L415.212 171.898L414.866 171.628L414.531 171.362L414.211 171.1L413.905 170.844C413.707 170.675 413.519 170.51 413.344 170.351L413.091 170.115C412.726 169.769 412.428 169.451 412.215 169.174L412.148 169.083L412.107 169.015C411.726 168.253 411.448 167.443 411.282 166.607C411.23 166.341 411.403 166.082 411.669 166.03Z" fill="#1B3C87"/>
<path d="M444.334 165.219C444.503 165.006 444.812 164.971 445.025 165.139L445.518 165.533L446.004 165.929L446.485 166.327L446.96 166.727L447.429 167.128L447.891 167.53L448.346 167.933L448.793 168.337L449.234 168.742C449.307 168.809 449.379 168.876 449.451 168.944L449.88 169.349L450.301 169.754L450.714 170.158L451.119 170.562C451.186 170.629 451.252 170.696 451.318 170.764L451.709 171.166C451.774 171.233 451.838 171.3 451.901 171.367L452.279 171.768C452.528 172.035 452.77 172.301 453.006 172.565L453.355 172.961C453.584 173.224 453.807 173.486 454.022 173.746L454.34 174.135C454.548 174.393 454.749 174.649 454.943 174.903L455.227 175.282C457.503 178.365 458.623 181.089 457.995 182.88C456.775 186.358 453.281 187.973 448.142 187.973C447.871 187.973 447.65 187.753 447.65 187.482C447.65 187.211 447.871 186.991 448.142 186.991C452.91 186.991 456.014 185.556 457.066 182.555C457.484 181.364 456.851 179.521 455.456 177.345L455.235 177.008C455.084 176.781 454.925 176.551 454.759 176.318L454.503 175.967C454.373 175.79 454.238 175.612 454.099 175.432L453.817 175.07C453.721 174.949 453.623 174.827 453.524 174.705L453.22 174.336L452.907 173.964L452.583 173.59C452.529 173.527 452.473 173.465 452.418 173.402L452.08 173.024L451.733 172.643C451.675 172.58 451.616 172.516 451.557 172.452L451.196 172.069C451.136 172.005 451.074 171.941 451.013 171.877L450.64 171.492L450.258 171.106L449.869 170.718L449.471 170.33L449.066 169.942L448.654 169.554C448.585 169.489 448.515 169.424 448.445 169.36L448.022 168.972L447.592 168.584C447.52 168.52 447.448 168.455 447.375 168.391L446.936 168.005L446.49 167.62L446.038 167.236C445.962 167.172 445.886 167.109 445.81 167.045L445.35 166.664L444.884 166.285C444.728 166.16 444.571 166.034 444.414 165.909C444.201 165.74 444.165 165.431 444.334 165.219Z" fill="#1B3C87"/>
<path d="M434.541 159.409C434.782 159.285 435.079 159.38 435.203 159.621C435.327 159.863 435.232 160.159 434.99 160.283C434.505 160.531 433.9 161.065 433.234 161.808L433.009 162.064C432.858 162.239 432.705 162.425 432.549 162.619L432.314 162.918C432.274 162.968 432.235 163.02 432.195 163.072L431.956 163.39C431.917 163.444 431.876 163.498 431.836 163.553L431.595 163.889L431.352 164.236L431.109 164.594L430.865 164.962L430.622 165.339L430.38 165.725L430.138 166.12L429.899 166.521C429.859 166.589 429.819 166.657 429.78 166.725L429.544 167.137C429.465 167.275 429.388 167.415 429.31 167.555L429.081 167.979L428.855 168.407L428.633 168.839C428.333 169.434 428.053 170.024 427.794 170.606L427.578 171.103C425.994 174.815 425.306 178.179 425.819 180.49L425.845 180.601L426.135 180.768C428.473 182.093 430.93 183.197 433.474 184.065L433.984 184.235C434.242 184.319 434.383 184.597 434.298 184.855C434.214 185.112 433.936 185.253 433.678 185.169C430.716 184.199 427.865 182.919 425.173 181.348C425.063 181.284 424.982 181.179 424.948 181.057C424.121 178.106 425.173 173.68 427.496 168.918L427.755 168.397L427.87 168.171L428.103 167.723C428.142 167.648 428.181 167.574 428.221 167.5L428.46 167.059L428.703 166.624C428.785 166.48 428.867 166.337 428.95 166.195L429.198 165.772C429.282 165.633 429.365 165.495 429.449 165.358L429.702 164.951C429.745 164.884 429.787 164.817 429.829 164.751L430.084 164.358L430.339 163.974L430.595 163.601C430.638 163.539 430.68 163.479 430.723 163.418L430.978 163.061C431.02 163.003 431.063 162.945 431.105 162.887L431.359 162.548C431.443 162.437 431.527 162.328 431.611 162.222L431.861 161.909C431.902 161.858 431.944 161.807 431.985 161.757L432.231 161.465C432.272 161.418 432.313 161.371 432.353 161.325L432.594 161.055C433.313 160.27 433.98 159.696 434.541 159.409Z" fill="#1B3C87"/>
</g>
<defs>
<clipPath id="clip0">
<rect width="539" height="420" fill="white" transform="translate(0.00012207)"/>
</clipPath>
</defs>
</svg>
