<svg xmlns="http://www.w3.org/2000/svg" id="canvas" width="1080" height="915" viewBox="890 1605 1080 915" style="position:fixed;overflow:hidden;top:0px;left:0px;width:100%;height:100%;pointer-events:all;user-select:none;-webkit-user-select:none;-moz-user-select:none;font-family:Inter, sans-serif;cursor:default;touch-action:none;outline:none"><defs><marker id="arrowhead" refX="1" refY="3" orient="auto" markerWidth="8" markerHeight="8"><path d="M2.91922181,1.64495663 L4.49787879,4.07365967 C4.64837316,4.30518948 4.58268096,4.61488128 4.35115115,4.76537565 C4.27004602,4.81809399 4.17538993,4.84615385 4.07865698,4.84615385 L0.921343022,4.84615385 C0.645200647,4.84615385 0.421343022,4.62229622 0.421343022,4.34615385 C0.421343022,4.24942089 0.44940288,4.1547648 0.502121214,4.07365967 L2.08077819,1.64495663 C2.23127257,1.41342682 2.54096436,1.34773462 2.77249418,1.498229 C2.83112579,1.53633954 2.88111126,1.58632502 2.91922181,1.64495663 Z" fill="#9babcf" transform="translate(2.500000, 2.923077) rotate(90.000000) translate(-2.500000, -2.923077)"></path></marker><marker id="arrowhead-selected" refX="1" refY="3" orient="auto" markerWidth="10" markerHeight="10"><path d="M2.91922181,1.64495663 L4.49787879,4.07365967 C4.64837316,4.30518948 4.58268096,4.61488128 4.35115115,4.76537565 C4.27004602,4.81809399 4.17538993,4.84615385 4.07865698,4.84615385 L0.921343022,4.84615385 C0.645200647,4.84615385 0.421343022,4.62229622 0.421343022,4.34615385 C0.421343022,4.24942089 0.44940288,4.1547648 0.502121214,4.07365967 L2.08077819,1.64495663 C2.23127257,1.41342682 2.54096436,1.34773462 2.77249418,1.498229 C2.83112579,1.53633954 2.88111126,1.58632502 2.91922181,1.64495663 Z" fill="#3366FF" transform="translate(2.500000, 2.923077) rotate(90.000000) translate(-2.500000, -2.923077) "></path></marker><pattern id="error-pattern" patternUnits="userSpaceOnUse" patternTransform="rotate(45 0 0)" width="5" height="5"><line x1="0" y1="0" x2="0" y2="5" stroke="#db4324" stroke-width="1"></line></pattern></defs><g id="wrapper" transform="translate(0, 0) scale(1)"><g transform="translate(1544, 2150)"><mask id="ctr_M0R9nbk149HSqHh8HXzdF-mask"><rect x="-3" y="-3" width="226" height="226" fill="white"></rect><rect x="97.5" y="-3" width="25" height="6" fill="black"></rect></mask><rect width="212" height="210" fill="#fcfcfc" stroke="#dadada" stroke-width="2px" stroke-opacity="1" rx="10" ry="10" mask="url(#ctr_M0R9nbk149HSqHh8HXzdF-mask)"></rect><g><rect width="16" height="16" x="-8" y="-8" fill="transparent"></rect><rect width="16" height="16" x="212" y="-8" fill="transparent"></rect><rect width="16" height="16" x="-8" y="212" fill="transparent"></rect><rect width="16" height="16" x="212" y="212" fill="transparent"></rect><rect width="16" height="204" x="-8" y="8" fill="transparent"></rect><rect width="16" height="204" x="212" y="8" fill="transparent"></rect><rect width="204" height="16" x="8" y="-8" fill="transparent"></rect><rect width="204" height="16" x="8" y="212" fill="transparent"></rect></g><g><g transform="translate(97.5, -10)"><svg viewBox="0 0 50 50" width="22" height="22"><svg id="rvQ8G8AFnPGXg_cF3v_es" xmlns="http://www.w3.org/2000/svg" viewBox="4.2 4.2 41.53 40.6" width="50" height="50"><g fill="none" fill-rule="evenodd"><path d="M0 0h50v50H0z"></path><path fill="#161514" d="M24.998 5C13.955 5 5 13.954 5 25c0 8.837 5.73 16.333 13.678 18.977 1 .184 1.365-.433 1.365-.964 0-.473-.017-1.732-.027-3.4-5.563 1.208-6.737-2.682-6.737-2.682-.91-2.31-2.221-2.926-2.221-2.926-1.816-1.24.137-1.215.137-1.215 2.008.14 3.064 2.061 3.064 2.061 1.784 3.056 4.681 2.173 5.82 1.661.182-1.291.7-2.173 1.27-2.673-4.44-.504-9.11-2.22-9.11-9.884 0-2.183.78-3.97 2.059-5.367-.206-.506-.893-2.54.196-5.293 0 0 1.679-.538 5.5 2.05A19.157 19.157 0 0 1 25 14.671c1.699.009 3.41.23 5.007.674 3.818-2.588 5.494-2.05 5.494-2.05 1.091 2.753.405 4.787.2 5.293 1.282 1.397 2.055 3.184 2.055 5.367 0 7.683-4.676 9.374-9.13 9.868.716.618 1.356 1.838 1.356 3.705 0 2.673-.025 4.83-.025 5.485 0 .536.361 1.158 1.376.963C39.274 41.326 45 33.835 45 25.001 45 13.954 36.045 5 24.998 5"></path></g></svg></svg></g><text x="125.5" y="4" font-size="12" font-weight="400" fill="black"></text></g></g><g transform="translate(990,2090)" width="110" height="110"><g transform="translate(30,30)"><path stroke="none" d="
    M 0, 16.6
    C 0, 2.9299 2.9299, 0 16.6, 0
    L 33.4, 0
    C 47.0701, 0 50, 2.9299 50, 16.6
    L 50, 33.4
    C 50, 47.0701 47.0701, 50 33.4, 50
    L 16.6, 50
    C 2.9299, 50 0, 47.0701 0, 33.4
    L 0, 16.6
  " stroke-width="2" fill="#e1e1e1"></path></g><svg viewBox="0 0 50 50" width="35" height="35" x="37.5" y="37.5"><svg id="wVdKyUmAFXknWU26TWLtb" xmlns="http://www.w3.org/2000/svg" viewBox="4.2 12.2 41.53 25.72" width="50" height="50"><path fill-rule="evenodd" d="M14.438 19.308h7.545v.6H15.13v4.523h6.444v.601H15.13v4.966h6.931v.601h-7.623V19.308zm8.22 0h.802l3.552 4.965 3.631-4.965L35.581 13l-8.113 11.795 4.18 5.804h-.832l-3.804-5.282-3.819 5.282h-.817l4.212-5.804-3.93-5.488zm9.29.6v-.6h8.597v.6h-3.96v10.69h-.693v-10.69h-3.944zM5 19.308h.865l11.92 17.876-4.926-6.585-7.136-10.438L5.69 30.6H5V19.308zm35.475 10.509a.245.245 0 0 1-.247-.252c0-.142.106-.251.247-.251.143 0 .247.11.247.251a.244.244 0 0 1-.247.252zm.68-.662h.37c.005.2.152.336.367.336.24 0 .376-.145.376-.417v-1.722h.377v1.724c0 .49-.282.771-.75.771-.439 0-.74-.273-.74-.692zm1.983-.022h.373c.032.231.258.378.582.378.303 0 .525-.157.525-.373 0-.185-.141-.297-.463-.373l-.312-.076c-.44-.103-.64-.316-.64-.673 0-.434.354-.723.883-.723.493 0 .854.289.875.699h-.367c-.035-.224-.23-.365-.512-.365-.298 0-.497.144-.497.363 0 .174.128.274.445.348l.267.066c.498.116.703.319.703.685 0 .466-.36.758-.935.758-.538 0-.9-.279-.927-.714z"></path></svg></svg><g transform="translate(55, 89)"><text x="0" y="0" text-anchor="middle" style="fill:#101840;font-size:10px" dominant-baseline="middle" alignment-baseline="middle"><tspan>Next.js</tspan><tspan x="0" y="12" text-anchor="middle" style="fill:#101840;font-size:10px">https://www.thinkmoreapp.com/</tspan></text></g><rect width="60" height="60" x="25" y="25" fill="transparent"></rect><rect width="40" height="40" x="35" y="35" fill="transparent"></rect></g><g transform="translate(1265,1760)" width="110" height="110"><g transform="translate(30,30)"><path stroke="none" d="
    M 0, 16.6
    C 0, 2.9299 2.9299, 0 16.6, 0
    L 33.4, 0
    C 47.0701, 0 50, 2.9299 50, 16.6
    L 50, 33.4
    C 50, 47.0701 47.0701, 50 33.4, 50
    L 16.6, 50
    C 2.9299, 50 0, 47.0701 0, 33.4
    L 0, 16.6
  " stroke-width="2" fill="#d7e4d5"></path></g><svg viewBox="0 0 50 50" width="35" height="35" x="37.5" y="37.5"><svg id="2YvtWUErFIOXD7qRBaow_" xmlns="http://www.w3.org/2000/svg" viewBox="5.39 4.64 40.03 41.53" width="50" height="50"><path fill="#1B660F" fill-rule="evenodd" d="m40.372 27.505.274-1.931c2.53 1.514 2.562 2.14 2.561 2.157-.004.004-.435.364-2.835-.226zm-1.388-.386c-4.372-1.323-10.46-4.116-12.923-5.28l.003-.03c0-.946-.77-1.716-1.717-1.716-.946 0-1.716.77-1.716 1.717 0 .946.77 1.716 1.716 1.716.415 0 .793-.155 1.09-.401 2.899 1.372 8.94 4.124 13.343 5.424L37.04 40.84a.682.682 0 0 0-.007.1c0 1.083-4.791 3.07-12.619 3.07-7.91 0-12.752-1.987-12.752-3.07a.745.745 0 0 0-.006-.096L8.016 14.266c3.15 2.168 9.923 3.315 16.401 3.315 6.469 0 13.231-1.142 16.387-3.304l-1.82 12.842zM7.632 11.494c.051-.94 5.453-4.627 16.785-4.627s16.734 3.686 16.786 4.627v.32c-.621 2.109-7.621 4.339-16.786 4.339-9.18 0-16.183-2.237-16.785-4.348v-.31zm35 .016c0-2.475-7.096-6.072-18.215-6.072S6.203 9.035 6.203 11.51l.067.539 3.963 28.945c.095 3.237 8.728 4.444 14.18 4.444 6.766 0 13.954-1.555 14.047-4.442l1.711-12.069c.952.228 1.736.344 2.365.344.845 0 1.416-.206 1.763-.619.284-.339.393-.749.311-1.185-.185-.988-1.358-2.054-3.748-3.418l1.697-11.973.073-.566z" clip-rule="evenodd"></path></svg></svg><g transform="translate(55, 89)"><text x="0" y="0" text-anchor="middle" style="fill:#101840;font-size:10px" dominant-baseline="middle" alignment-baseline="middle"><tspan>MinIo (Amazon S3)</tspan></text></g><rect width="60" height="60" x="25" y="25" fill="transparent"></rect><rect width="40" height="40" x="35" y="35" fill="transparent"></rect></g><g transform="translate(1430,1925)" width="110" height="110"><g transform="translate(30,30)"><path stroke="none" d="
    M 0, 16.6
    C 0, 2.9299 2.9299, 0 16.6, 0
    L 33.4, 0
    C 47.0701, 0 50, 2.9299 50, 16.6
    L 50, 33.4
    C 50, 47.0701 47.0701, 50 33.4, 50
    L 16.6, 50
    C 2.9299, 50 0, 47.0701 0, 33.4
    L 0, 16.6
  " stroke-width="2" fill="#cce4f6"></path></g><svg viewBox="0 0 50 50" width="35" height="35" x="37.5" y="37.5"><svg id="tJsi5rjO-ZLmWcfY_lKJ3" xmlns="http://www.w3.org/2000/svg" viewBox="5.01 5.2 41.6 41.48" width="50" height="50"><g fill="none" fill-rule="evenodd"><path fill="url(#HCsSESzsqpVBQV-tbx4qs)" d="M21.898 22.077H9.18a.673.673 0 0 1-.673-.673V9.36a.673.673 0 0 1 .673-.673h12.045a.673.673 0 0 1 .673.673v12.718Zm2.694 2.692V6.672a.674.674 0 0 0-.673-.68H6.489a.675.675 0 0 0-.674.68v17.424a.673.673 0 0 0 .673.673h18.104Z"></path><path fill="url(#tJ-0AiODfP7h39HmEPCIz)" d="M29.733 22.077V9.371a.673.673 0 0 1 .673-.673h12.045a.673.673 0 0 1 .673.673v12.033a.673.673 0 0 1-.673.673H29.733Zm-2.694 2.692h18.103a.673.673 0 0 0 .673-.673V6.672a.675.675 0 0 0-.673-.675h-17.43a.675.675 0 0 0-.673.675V24.77Z"></path><path fill="url(#W1LCAUG0Xwo0O0Tj5PaTG)" d="M29.733 29.856h12.718a.674.674 0 0 1 .673.673v12.044a.674.674 0 0 1-.673.673H30.406a.673.673 0 0 1-.673-.673V29.856Zm-2.694-2.692V45.26a.676.676 0 0 0 .673.676h17.43a.675.675 0 0 0 .673-.675V27.849a.673.673 0 0 0-.673-.673l-18.103-.012Z"></path><path fill="url(#c5tIM4B_NIrFLDFWmkjwB)" d="M21.898 29.856v12.706a.674.674 0 0 1-.673.673H9.18a.673.673 0 0 1-.673-.673V30.529a.673.673 0 0 1 .673-.673h12.718Zm2.694-2.692H6.488a.67.67 0 0 0-.673.685V45.26a.675.675 0 0 0 .673.675h17.43a.676.676 0 0 0 .674-.675V27.163Z"></path><path fill="#5FB832" d="M39.698 24.131a37.504 37.504 0 0 0-2.43-11.485c-.35.822-.795 1.6-1.325 2.318a13.647 13.647 0 0 0-9.497-3.866 13.254 13.254 0 1 0 13.252 13.254v-.22Z"></path><path fill="#fff" d="M37.159 30.317c-3.313 4.306-10.27 2.87-14.687 3.092a12.51 12.51 0 0 0-1.548.11l.663-.22a51.302 51.302 0 0 0 6.515-2.32 15.036 15.036 0 0 0 7.843-10.05 15.57 15.57 0 0 1-9.278 8.835 53.063 53.063 0 0 1-7.294 1.882l-.221-.11c-3.198-1.55-3.308-8.508 2.428-10.718 2.541-.993 4.97-.442 7.732-1.103a12.367 12.367 0 0 0 7.739-5.749c1.656 4.753 3.423 11.932.108 16.35Zm-18.663 4.306a1.103 1.103 0 1 0-.005-2.207 1.103 1.103 0 0 0 .005 2.207Z"></path><defs><linearGradient id="HCsSESzsqpVBQV-tbx4qs" x1="4.032" x2="25.173" y1="4.258" y2="25.308" gradientUnits="userSpaceOnUse"><stop offset=".059" stop-color="#0086EC"></stop><stop offset="1" stop-color="#004DAE"></stop></linearGradient><linearGradient id="tJ-0AiODfP7h39HmEPCIz" x1="25.966" x2="45.799" y1="25.449" y2="6.364" gradientUnits="userSpaceOnUse"><stop stop-color="#004DAE"></stop><stop offset=".941" stop-color="#0086EC"></stop></linearGradient><linearGradient id="W1LCAUG0Xwo0O0Tj5PaTG" x1="25.493" x2="46.451" y1="24.788" y2="47.333" gradientUnits="userSpaceOnUse"><stop offset=".059" stop-color="#0086EC"></stop><stop offset="1" stop-color="#004DAE"></stop></linearGradient><linearGradient id="c5tIM4B_NIrFLDFWmkjwB" x1="24.975" x2="5.799" y1="26.35" y2="46.371" gradientUnits="userSpaceOnUse"><stop offset=".059" stop-color="#0086EC"></stop><stop offset="1" stop-color="#004DAE"></stop></linearGradient></defs></g></svg></svg><g transform="translate(55, 89)"><text x="0" y="0" text-anchor="middle" style="fill:#101840;font-size:10px" dominant-baseline="middle" alignment-baseline="middle"><tspan>Spring Boot</tspan><tspan x="0" y="12" text-anchor="middle" style="fill:#101840;font-size:10px">https://api.thinkmoreapp.com/</tspan></text></g><rect width="60" height="60" x="25" y="25" fill="transparent"></rect><rect width="40" height="40" x="35" y="35" fill="transparent"></rect></g><g transform="translate(1100,2200)" width="110" height="110"><g transform="translate(30,30)"><path stroke="none" d="
    M 0, 16.6
    C 0, 2.9299 2.9299, 0 16.6, 0
    L 33.4, 0
    C 47.0701, 0 50, 2.9299 50, 16.6
    L 50, 33.4
    C 50, 47.0701 47.0701, 50 33.4, 50
    L 16.6, 50
    C 2.9299, 50 0, 47.0701 0, 33.4
    L 0, 16.6
  " stroke-width="2" fill="#e1e1e1"></path></g><svg viewBox="0 0 50 50" width="35" height="35" x="37.5" y="37.5"><svg id="Mbcmwxlrw2Qp4nlgfjWgX" xmlns="http://www.w3.org/2000/svg" viewBox="4.95 6.89 41.53 36.16" width="50" height="50"><path fill-rule="evenodd" d="M25.75 7.711 45.752 42.29h-40l20-34.578z"></path></svg></svg><g transform="translate(55, 89)"><text x="0" y="0" text-anchor="middle" style="fill:#101840;font-size:10px" dominant-baseline="middle" alignment-baseline="middle"><tspan>Vercel</tspan></text></g><rect width="60" height="60" x="25" y="25" fill="transparent"></rect><rect width="40" height="40" x="35" y="35" fill="transparent"></rect></g><g transform="translate(990,2200)" width="110" height="110"><g transform="translate(30,30)"><path stroke="none" d="
    M 0, 16.6
    C 0, 2.9299 2.9299, 0 16.6, 0
    L 33.4, 0
    C 47.0701, 0 50, 2.9299 50, 16.6
    L 50, 33.4
    C 50, 47.0701 47.0701, 50 33.4, 50
    L 16.6, 50
    C 2.9299, 50 0, 47.0701 0, 33.4
    L 0, 16.6
  " stroke-width="2" fill="#e4def2"></path></g><svg viewBox="0 0 50 50" width="35" height="35" x="37.5" y="37.5"><svg id="I6_wkALfBNJhyBx6Hzwfq" xmlns="http://www.w3.org/2000/svg" viewBox="4.51 5.14 41.6 41.54" width="50" height="50"><path fill="#4D27A8" fill-rule="evenodd" d="M31.533 26.422c.528.488.792 1.142.792 1.963 0 .893-.321 1.606-.963 2.14-.643.533-1.507.8-2.59.8a6.33 6.33 0 0 1-2.543-.548v-1.094c.993.33 1.84.493 2.543.493.693 0 1.225-.155 1.599-.465.374-.31.56-.752.56-1.326 0-1.103-.696-1.655-2.091-1.655-.438 0-.87.023-1.3.068v-.902l2.872-3.132h-4.046v-1.12h5.564v1.08l-2.817 2.98a.686.686 0 0 1 .137-.013h.137c.903 0 1.618.244 2.146.731zm-7.941-.239c.555.52.833 1.235.833 2.146 0 .894-.323 1.617-.971 2.168-.647.552-1.499.828-2.556.828-.929 0-1.8-.183-2.61-.548v-1.094c1.01.33 1.876.493 2.596.493.693 0 1.224-.157 1.593-.472.369-.314.554-.767.554-1.36 0-.648-.174-1.117-.52-1.409-.347-.291-.912-.438-1.695-.438-.565 0-1.27.047-2.119.137v-.902l.26-4.089h4.99v1.121h-3.842l-.178 2.776c.502-.09.952-.136 1.353-.136.984 0 1.755.26 2.312.78zm10.273 10.024c-3.467.623-6.503 2.035-8.54 3.185-2.038-1.15-5.075-2.562-8.541-3.185-.976-.176-5.839-1.19-5.839-4.002 0-1.303.467-2.167 1.362-3.71 1.07-1.844 2.402-4.14 2.402-7.447 0-2.363-.62-4.629-1.842-6.743.143-.178.29-.357.437-.538 1.811.906 3.697 1.364 5.614 1.364 2.343 0 4.496-.615 6.407-1.829 1.91 1.214 4.062 1.83 6.405 1.83 1.917 0 3.804-.46 5.615-1.365l.437.538c-1.223 2.114-1.842 4.38-1.842 6.743 0 3.306 1.33 5.603 2.403 7.45.894 1.54 1.36 2.404 1.36 3.707 0 2.811-4.863 3.826-5.838 4.002zm3.503-15.16c0-2.255.636-4.417 1.89-6.426a.712.712 0 0 0-.052-.83c-.363-.445-.744-.913-1.12-1.378a.714.714 0 0 0-.9-.176c-1.76.972-3.594 1.465-5.456 1.465-2.246 0-4.208-.604-6-1.845a.715.715 0 0 0-.813 0c-1.791 1.241-3.753 1.845-5.999 1.845-1.861 0-3.696-.493-5.456-1.465a.715.715 0 0 0-.9.176c-.376.465-.757.933-1.12 1.378a.713.713 0 0 0-.052.83c1.254 2.009 1.89 4.171 1.89 6.427 0 2.922-1.225 5.033-2.21 6.732-.963 1.66-1.553 2.762-1.553 4.425 0 3.85 5.368 5.113 7.014 5.409 3.471.623 6.503 2.095 8.434 3.219a.709.709 0 0 0 .719 0c1.931-1.124 4.962-2.596 8.433-3.22 1.646-.295 7.015-1.559 7.015-5.408 0-1.663-.59-2.765-1.555-4.427-.984-1.697-2.209-3.808-2.209-6.73zm-2.762 19.288c-4.38.787-8.05 3.142-9.281 4.005-1.232-.863-4.903-3.218-9.283-4.005-8.62-1.549-9.289-6.614-9.289-8.13 0-2.493.98-4.18 1.926-5.813.903-1.556 1.837-3.165 1.837-5.344 0-3.443-1.988-5.875-2.969-6.864 1.032-1.255 3.638-4.432 4.923-6.087 1.947 1.837 4.21 2.84 6.448 2.84 2.484 0 4.539-1.011 6.407-3.168 1.867 2.157 3.92 3.168 6.405 3.168 2.238 0 4.502-1.003 6.45-2.84 1.285 1.655 3.89 4.832 4.92 6.087-.98.99-2.968 3.421-2.968 6.864 0 2.18.935 3.788 1.837 5.344.948 1.633 1.927 3.32 1.927 5.813 0 1.516-.67 6.581-9.29 8.13zm8.599-14.66c-.883-1.52-1.644-2.833-1.644-4.627 0-3.777 2.94-6.22 2.969-6.243a.717.717 0 0 0 .102-1.011c-.048-.058-4.73-5.734-5.803-7.204a.713.713 0 0 0-1.099-.068c-1.8 1.925-3.93 2.986-6 2.986-2.288 0-4.088-1.02-5.838-3.306-.271-.353-.864-.353-1.135 0-1.75 2.286-3.55 3.306-5.839 3.306-2.07 0-4.2-1.06-6-2.986a.694.694 0 0 0-.565-.225.714.714 0 0 0-.533.293c-1.073 1.47-5.756 7.146-5.803 7.204a.715.715 0 0 0-.159.526.715.715 0 0 0 .26.483c.03.025 2.97 2.468 2.97 6.245 0 1.794-.762 3.107-1.644 4.627-.994 1.712-2.12 3.652-2.12 6.53 0 4.794 3.913 8.359 10.466 9.537 4.934.886 9.059 4.015 9.1 4.048a.715.715 0 0 0 .87-.001c.04-.032 4.152-3.159 9.098-4.047 6.554-1.178 10.467-4.743 10.467-9.537 0-2.878-1.127-4.818-2.12-6.53z" clip-rule="evenodd"></path></svg></svg><g transform="translate(55, 89)"><text x="0" y="0" text-anchor="middle" style="fill:#101840;font-size:10px" dominant-baseline="middle" alignment-baseline="middle"><tspan>AWS DNS</tspan></text></g><rect width="60" height="60" x="25" y="25" fill="transparent"></rect><rect width="40" height="40" x="35" y="35" fill="transparent"></rect></g><g transform="translate(1430,2200)" width="110" height="110"><g transform="translate(30,30)"><path stroke="none" d="
    M 0, 16.6
    C 0, 2.9299 2.9299, 0 16.6, 0
    L 33.4, 0
    C 47.0701, 0 50, 2.9299 50, 16.6
    L 50, 33.4
    C 50, 47.0701 47.0701, 50 33.4, 50
    L 16.6, 50
    C 2.9299, 50 0, 47.0701 0, 33.4
    L 0, 16.6
  " stroke-width="2" fill="#dfe1e3"></path></g><svg viewBox="0 0 50 50" width="35" height="35" x="37.5" y="37.5"><svg id="_rw7SsEM7NBAnwQDmERk6" xmlns="http://www.w3.org/2000/svg" viewBox="4.2 4.2 41.53 40.72" width="50" height="50"><path fill="#232F3D" fill-rule="evenodd" d="M41.596 38.11v1.865c0 .424-.318.77-.712.77h-9.64c-.394 0-.712-.346-.712-.77V38.11c0-.425.318-.77.712-.77h9.64c.394 0 .712.345.712.77zm1.702 3.761a.585.585 0 0 1-.592.576H7.296a.585.585 0 0 1-.594-.576v-4.807c0-.317.266-.575.593-.575h35.41c.327 0 .593.258.593.575v4.807zm-.713-7.084H7.415c-1.33 0-2.415 1.04-2.415 2.319v4.724c0 1.278 1.084 2.319 2.416 2.319h35.17c1.33 0 2.414-1.04 2.414-2.32v-4.723c0-1.279-1.083-2.319-2.415-2.319zM10.106 27.98h29.788V10.106H10.106V27.98zM40.312 8.404H9.689c-.708 0-1.285.572-1.285 1.276v18.725c0 .703.577 1.276 1.285 1.276h30.623c.708 0 1.284-.573 1.284-1.276V9.68a1.28 1.28 0 0 0-1.284-1.276zm2.986 22.384a.594.594 0 0 1-.592.595H7.296a.595.595 0 0 1-.594-.595V7.298c0-.329.266-.596.593-.596h35.41c.327 0 .593.267.593.595v23.49zM42.585 5H7.415A2.42 2.42 0 0 0 5 7.418v23.25a2.42 2.42 0 0 0 2.416 2.417h35.17A2.419 2.419 0 0 0 45 30.667V7.417A2.419 2.419 0 0 0 42.585 5z"></path></svg></svg><g transform="translate(55, 89)"><text x="0" y="0" text-anchor="middle" style="fill:#101840;font-size:10px" dominant-baseline="middle" alignment-baseline="middle"><tspan>Client</tspan></text></g><rect width="60" height="60" x="25" y="25" fill="transparent"></rect><rect width="40" height="40" x="35" y="35" fill="transparent"></rect></g><g transform="translate(1540,1815)" width="110" height="110"><g transform="translate(30,30)"><path stroke="none" d="
    M 0, 16.6
    C 0, 2.9299 2.9299, 0 16.6, 0
    L 33.4, 0
    C 47.0701, 0 50, 2.9299 50, 16.6
    L 50, 33.4
    C 50, 47.0701 47.0701, 50 33.4, 50
    L 16.6, 50
    C 2.9299, 50 0, 47.0701 0, 33.4
    L 0, 16.6
  " stroke-width="2" fill="#cce4f6"></path></g><svg viewBox="0 0 50 50" width="35" height="35" x="37.5" y="37.5"><svg id="GBBTJ9Cu_MS8bylHEkObO" xmlns="http://www.w3.org/2000/svg" viewBox="9.08 4.95 31.79 41.53" width="50" height="50"><g fill="none" fill-rule="evenodd"><path fill="url(#bilxBt0ZZcfsBiHAc0Q-g)" d="M25 16.666c-8.33 0-15.082-2.353-15.082-5.459V40.29c0 2.988 6.635 5.412 14.87 5.459H25c8.33 0 15.082-2.353 15.082-5.46V11.208c0 3.012-6.753 5.46-15.082 5.46Z"></path><path fill="#E8E8E8" d="M40.082 11.208c0 3.011-6.753 5.458-15.082 5.458-8.33 0-15.082-2.353-15.082-5.458 0-3.106 6.753-5.46 15.082-5.46 8.33 0 15.082 2.354 15.082 5.46Z"></path><path fill="#50E6FF" d="M36.553 10.76c0 1.93-5.176 3.483-11.553 3.483-6.377 0-11.576-1.553-11.576-3.459 0-1.906 5.176-3.482 11.576-3.482s11.553 1.553 11.553 3.459Z"></path><path fill="#198AB3" d="M25 11.631a27.411 27.411 0 0 0-9.177 1.341A27.13 27.13 0 0 0 25 14.242a26.99 26.99 0 0 0 9.153-1.364A28.07 28.07 0 0 0 25 11.631Z"></path><path fill="#F2F2F2" d="M32.059 25.749v.988c-.093.49-.156.985-.188 1.482 0 .283 0 .706.117 1.083.118.376 0 .635 0 .847a3.953 3.953 0 0 1-.588 2.023c-.005.055-.005.11 0 .165l.235.282a24.823 24.823 0 0 0 2.494-5.6c.66-2.235.73-3.835.212-4.517a6.07 6.07 0 0 0-6.306-2.024c.8.398 1.524.932 2.142 1.577a5.367 5.367 0 0 1 1.882 3.694Zm-.73.188a2.705 2.705 0 0 0-1.858.212c-.683.423-.471 1.294 0 2.353.234.682.51 1.35.823 2l.212.376c.117.188.188.353.259.47l.188.307c.275-.463.422-.991.424-1.53a6.75 6.75 0 0 0 0-.776c0-.4 0-.847-.118-1.153.032-.545.095-1.087.188-1.624-.07-.258-.047-.517-.023-.706l-.095.071Zm-.706.965a.94.94 0 0 1-.423.235.775.775 0 0 1-.33 0 .542.542 0 0 1-.164-.447c0-.165.259-.306.565-.353h.447s.211 0 .211.188a.47.47 0 0 1-.211.306l-.095.07Zm-11.035 2.094v-.4a2.343 2.343 0 0 0 0-.4c-.07-.783-.07-1.57 0-2.353.14-.886.377-1.754.706-2.588a5.67 5.67 0 0 1 1.365-2.212c-1.031-.308-2.1-.467-3.177-.47a4.4 4.4 0 0 0-2.588.705 4.705 4.705 0 0 0-1.482 4.283c.226 1.79.62 3.554 1.176 5.27.8 2.683 1.718 4.33 2.518 4.588.353.118.73 0 1.106-.494.659-.8 1.27-1.482 1.623-1.882a4.423 4.423 0 0 1-1.153-4.118l-.094.07Zm.612.941c-.01.444.037.886.141 1.318.143.377.35.727.612 1.035.232.25.512.45.823.588.292.119.603.183.918.188 0-.4.33-.894.541-1.411.198-.45.363-.915.494-1.389.074-.869.074-1.742 0-2.611 0-.212 0-.447-.14-.706a1.059 1.059 0 0 0-.283-.636 1.553 1.553 0 0 0-.659-.376h-.47c-.392.048-.774.16-1.13.33a4.706 4.706 0 0 0-.753.447v1.694c.01.117.01.235 0 .352v.918l-.094.259Zm1.553-3.153c.214-.068.445-.068.659 0 .156.022.307.07.447.141.212 0 .235.26.212.33a.87.87 0 0 1-.283.306.701.701 0 0 1-.14-.095.8.8 0 0 1-.66-.658l-.235-.024Zm1.741 7.059a.541.541 0 0 0-.306.141l-.33.4c-.4.494-.564.659-1.717.894a1.223 1.223 0 0 0-.612.236c.166.128.36.217.565.258.551.177 1.143.177 1.694 0 .333-.16.642-.366.918-.611.228-.19.393-.444.47-.73a.848.848 0 0 0-.235-.659.354.354 0 0 0-.353-.047l-.094.118Zm10.847 0c-.858.317-1.8.317-2.659 0a.517.517 0 0 0-.329 0 .706.706 0 0 0-.4.33 2.561 2.561 0 0 0 0 .729 4.234 4.234 0 0 0 2.588-.236c.43-.18.816-.454 1.13-.8l-.33-.023Zm-5.647-5.035c-.33-.965-.8-2.353.424-3.2a3.176 3.176 0 0 1 2.094-.353 7.48 7.48 0 0 0-1.506-2.706l-.235-.235-.142-.142a.8.8 0 0 0-.14-.14 5.507 5.507 0 0 0-1.577-.99A6.189 6.189 0 0 0 25 20.526a3.577 3.577 0 0 0-1.647.259 4.17 4.17 0 0 0-.706.259 4.94 4.94 0 0 0-1.741 2.353 13.731 13.731 0 0 0-.494 2.353 3.905 3.905 0 0 1 2.353-.541 1.975 1.975 0 0 1 1.811 2.14 17.08 17.08 0 0 1 0 2.989 9.116 9.116 0 0 1-.54 1.482c-.142.4-.33.824-.424 1.153a1.175 1.175 0 0 1 .894.33 1.555 1.555 0 0 1 .447 1.247H25v.565c-.175 1.932.017 3.88.565 5.74.134.218.33.39.564.495.217.144.47.225.73.235a3.06 3.06 0 0 0 2.353-.8 2.47 2.47 0 0 0 .682-1.553c.165-1.059.518-4 .565-4.706a1.694 1.694 0 0 1 .212-1.035c.152-.246.373-.443.635-.565a12.613 12.613 0 0 1-2.518-4.259l-.094.142Z"></path><defs><linearGradient id="bilxBt0ZZcfsBiHAc0Q-g" x1="9.898" x2="40.087" y1="28.501" y2="28.495" gradientUnits="userSpaceOnUse"><stop stop-color="#005BA1"></stop><stop offset=".07" stop-color="#0060A9"></stop><stop offset=".36" stop-color="#0071C8"></stop><stop offset=".52" stop-color="#0078D4"></stop><stop offset=".64" stop-color="#0074CD"></stop><stop offset=".82" stop-color="#006ABB"></stop><stop offset="1" stop-color="#005BA1"></stop></linearGradient></defs></g></svg></svg><g transform="translate(55, 89)"><text x="0" y="0" text-anchor="middle" style="fill:#101840;font-size:10px" dominant-baseline="middle" alignment-baseline="middle"><tspan>PostgreSQL</tspan></text></g><rect width="60" height="60" x="25" y="25" fill="transparent"></rect><rect width="40" height="40" x="35" y="35" fill="transparent"></rect></g><g transform="translate(1430,1815)" width="110" height="110"><g transform="translate(30,30)"><path stroke="none" d="
    M 0, 16.6
    C 0, 2.9299 2.9299, 0 16.6, 0
    L 33.4, 0
    C 47.0701, 0 50, 2.9299 50, 16.6
    L 50, 33.4
    C 50, 47.0701 47.0701, 50 33.4, 50
    L 16.6, 50
    C 2.9299, 50 0, 47.0701 0, 33.4
    L 0, 16.6
  " stroke-width="2" fill="#ffdac1"></path></g><svg viewBox="0 0 50 50" width="35" height="35" x="37.5" y="37.5"><svg id="7aViq4ZeDm585p_KnI37O" xmlns="http://www.w3.org/2000/svg" viewBox="5.26 4.76 39.41 41.53" width="50" height="50"><path fill="#F60" fill-rule="evenodd" d="M42.007 21.804a1.915 1.915 0 0 1 1.916 1.905v19.944c0 1.05-.85 1.907-1.906 1.907H8.013a1.907 1.907 0 0 1-1.907-1.907V7.484c0-1.048.849-1.905 1.908-1.905h4.134c1.048 0 1.905.847 1.905 1.905V20.01a1.933 1.933 0 0 0 1.674 1.795h3.092c.937-.087 1.717-.85 1.77-1.795V7.483c0-1.049.847-1.906 1.905-1.906h4.133c1.049 0 1.907.848 1.907 1.906v12.395c0 .979.72 1.811 1.664 1.924H42.01l-.002.002ZM36.565 35.48v-3.903a1.906 1.906 0 0 0-1.906-1.907h-4.134c-1.049 0-1.908.85-1.908 1.907v3.901c0 1.049.85 1.906 1.908 1.906h4.133a1.905 1.905 0 0 0 1.905-1.906l.002.002Z"></path></svg></svg><g transform="translate(55, 89)"><text x="0" y="0" text-anchor="middle" style="fill:#101840;font-size:10px" dominant-baseline="middle" alignment-baseline="middle"><tspan>RabbitMQ</tspan></text></g><rect width="60" height="60" x="25" y="25" fill="transparent"></rect><rect width="40" height="40" x="35" y="35" fill="transparent"></rect></g><g transform="translate(1430,1705)" width="110" height="110"><g transform="translate(30,30)"><path stroke="none" d="
    M 0, 16.6
    C 0, 2.9299 2.9299, 0 16.6, 0
    L 33.4, 0
    C 47.0701, 0 50, 2.9299 50, 16.6
    L 50, 33.4
    C 50, 47.0701 47.0701, 50 33.4, 50
    L 16.6, 50
    C 2.9299, 50 0, 47.0701 0, 33.4
    L 0, 16.6
  " stroke-width="2" fill="#dfe1e3"></path></g><svg viewBox="0 0 50 50" width="35" height="35" x="37.5" y="37.5"><svg id="Oyy8UhN58W7v3qKciS8os" xmlns="http://www.w3.org/2000/svg" viewBox="4.83 12.39 41.6 26.29" width="50" height="50"><path fill="#232F3D" fill-rule="evenodd" d="m32.427 25.516 11.38-9.37v18.853l-11.38-9.483zm-12.176 1.177 5.375 4.425 5.373-4.425 11.316 9.43H8.936l11.315-9.43zm-1.428-1.177L7.443 35V16.144l11.38 9.372zm6.803 3.247L8.952 15.032h33.346l-16.673 13.73zm-20-14.962v23.552c0 .324.262.588.587.588h38.824a.588.588 0 0 0 .589-.589V13.802a.587.587 0 0 0-.589-.588H6.213a.587.587 0 0 0-.588.588z" clip-rule="evenodd"></path></svg></svg><g transform="translate(55, 89)"><text x="0" y="0" text-anchor="middle" style="fill:#101840;font-size:10px" dominant-baseline="middle" alignment-baseline="middle"><tspan>Sendgrid</tspan></text></g><rect width="60" height="60" x="25" y="25" fill="transparent"></rect><rect width="40" height="40" x="35" y="35" fill="transparent"></rect></g><g transform="translate(1650,1815)" width="110" height="110"><g transform="translate(30,30)"><path stroke="none" d="
    M 0, 16.6
    C 0, 2.9299 2.9299, 0 16.6, 0
    L 33.4, 0
    C 47.0701, 0 50, 2.9299 50, 16.6
    L 50, 33.4
    C 50, 47.0701 47.0701, 50 33.4, 50
    L 16.6, 50
    C 2.9299, 50 0, 47.0701 0, 33.4
    L 0, 16.6
  " stroke-width="2" fill="#f8dad8"></path></g><svg viewBox="0 0 50 50" width="35" height="35" x="37.5" y="37.5"><svg id="qbCIXxJ8mVIFsZJnFo-88" xmlns="http://www.w3.org/2000/svg" viewBox="4.95 7.45 41.6 35.85" width="50" height="50"><g fill="none" fill-rule="evenodd"><path fill="#A32321" d="M44.184 34.72c-2.135 1.11-13.193 5.652-15.54 6.88-2.346 1.227-3.657 1.199-5.516.327-1.86-.871-13.62-5.645-15.755-6.652-1.06-.508-1.6-.935-1.6-1.335v-4.054s15.312-3.334 17.783-4.222c2.47-.887 3.33-.92 5.432-.148 2.103.772 14.684 3.055 16.763 3.814v3.998c0 .4-.48.84-1.567 1.407v-.016z"></path><path fill="#DC382D" d="M44.184 30.686c-2.135 1.11-13.193 5.652-15.54 6.88-2.346 1.227-3.657 1.199-5.516.328-1.86-.872-13.62-5.65-15.755-6.66-2.135-1.012-2.163-1.712-.08-2.527 2.083-.816 13.792-5.401 16.263-6.289 2.47-.887 3.33-.927 5.432-.128 2.103.8 13.093 5.121 15.164 5.885 2.07.764 2.159 1.387.024 2.503l.008.008z"></path><path fill="#A32321" d="M44.184 28.127c-2.135 1.111-13.193 5.657-15.54 6.884-2.346 1.227-3.657 1.2-5.516.328-1.86-.872-13.62-5.64-15.755-6.652-1.06-.508-1.6-.936-1.6-1.34V23.31s15.312-3.334 17.783-4.218c2.47-.883 3.33-.92 5.432-.148 2.103.772 14.684 3.034 16.763 3.798v3.998c0 .4-.48.84-1.567 1.403v-.016z"></path><path fill="#DC382D" d="M44.184 24.085c-2.135 1.112-13.193 5.657-15.54 6.884-2.346 1.228-3.657 1.2-5.516.328-1.86-.871-13.62-5.64-15.755-6.652-2.135-1.011-2.163-1.711-.08-2.527 2.083-.815 13.792-5.404 16.263-6.288 2.47-.883 3.33-.92 5.432-.148 2.103.772 13.093 5.141 15.164 5.905 2.07.763 2.159 1.387.024 2.498h.008z"></path><path fill="#A32321" d="M44.184 21.295c-2.135 1.111-13.193 5.657-15.54 6.884-2.346 1.227-3.657 1.2-5.516.324-1.86-.876-13.62-5.637-15.755-6.652-1.06-.504-1.6-.932-1.6-1.336v-4.041s15.312-3.33 17.783-4.218c2.47-.887 3.33-.92 5.432-.148 2.103.772 14.684 3.038 16.763 3.786v3.998c0 .4-.48.84-1.567 1.403z"></path><path fill="#DC382D" d="M44.184 17.253c-2.135 1.112-13.193 5.657-15.54 6.884-2.346 1.228-3.657 1.2-5.516.324-1.86-.875-13.62-5.637-15.755-6.652-2.135-1.016-2.163-1.707-.08-2.523 2.083-.815 13.792-5.389 16.263-6.292 2.47-.904 3.33-.916 5.432-.148 2.103.768 13.093 5.145 15.164 5.905 2.07.76 2.159 1.39.024 2.502h.008z"></path><path fill="#fff" d="m26.39 11.508 2.635-.86-.712 1.708 2.686 1.003-3.462.36-.775 1.867-1.256-2.083-3.997-.356 2.982-1.079-.895-1.65 2.794 1.09zm.164 10.906-6.468-2.682 9.266-1.42-2.798 4.102zM17.59 14.4c2.734 0 4.95.86 4.95 1.919 0 1.06-2.216 1.919-4.95 1.919s-4.953-.86-4.953-1.92c0-1.059 2.219-1.918 4.953-1.918z"></path><path fill="#741012" d="m35.093 13.871 5.485 2.167-5.481 2.163-.004-4.33z"></path><path fill="#AC2823" d="m35.093 13.871.004 4.33-.592.236-5.477-2.167 6.065-2.399z"></path></g></svg></svg><g transform="translate(55, 89)"><text x="0" y="0" text-anchor="middle" style="fill:#101840;font-size:10px" dominant-baseline="middle" alignment-baseline="middle"><tspan>Redis</tspan></text></g><rect width="60" height="60" x="25" y="25" fill="transparent"></rect><rect width="40" height="40" x="35" y="35" fill="transparent"></rect></g><g transform="translate(990,1980)" width="110" height="110"><g transform="translate(30,30)"><path stroke="none" d="
    M 0, 16.6
    C 0, 2.9299 2.9299, 0 16.6, 0
    L 33.4, 0
    C 47.0701, 0 50, 2.9299 50, 16.6
    L 50, 33.4
    C 50, 47.0701 47.0701, 50 33.4, 50
    L 16.6, 50
    C 2.9299, 50 0, 47.0701 0, 33.4
    L 0, 16.6
  " stroke-width="2" fill="#dfe1e3"></path></g><svg viewBox="0 0 50 50" width="35" height="35" x="37.5" y="37.5"><svg id="dE0h7jkem-prQ3P2A1K1Q" xmlns="http://www.w3.org/2000/svg" viewBox="4.2 4.2 41.53 40.72" width="50" height="50"><path fill="#232F3D" fill-rule="evenodd" d="M41.596 38.11v1.865c0 .424-.318.77-.712.77h-9.64c-.394 0-.712-.346-.712-.77V38.11c0-.425.318-.77.712-.77h9.64c.394 0 .712.345.712.77zm1.702 3.761a.585.585 0 0 1-.592.576H7.296a.585.585 0 0 1-.594-.576v-4.807c0-.317.266-.575.593-.575h35.41c.327 0 .593.258.593.575v4.807zm-.713-7.084H7.415c-1.33 0-2.415 1.04-2.415 2.319v4.724c0 1.278 1.084 2.319 2.416 2.319h35.17c1.33 0 2.414-1.04 2.414-2.32v-4.723c0-1.279-1.083-2.319-2.415-2.319zM10.106 27.98h29.788V10.106H10.106V27.98zM40.312 8.404H9.689c-.708 0-1.285.572-1.285 1.276v18.725c0 .703.577 1.276 1.285 1.276h30.623c.708 0 1.284-.573 1.284-1.276V9.68a1.28 1.28 0 0 0-1.284-1.276zm2.986 22.384a.594.594 0 0 1-.592.595H7.296a.595.595 0 0 1-.594-.595V7.298c0-.329.266-.596.593-.596h35.41c.327 0 .593.267.593.595v23.49zM42.585 5H7.415A2.42 2.42 0 0 0 5 7.418v23.25a2.42 2.42 0 0 0 2.416 2.417h35.17A2.419 2.419 0 0 0 45 30.667V7.417A2.419 2.419 0 0 0 42.585 5z"></path></svg></svg><g transform="translate(55, 89)"><text x="0" y="0" text-anchor="middle" style="fill:#101840;font-size:10px" dominant-baseline="middle" alignment-baseline="middle"><tspan>https://thinkmoreapp.com</tspan></text></g><rect width="60" height="60" x="25" y="25" fill="transparent"></rect><rect width="40" height="40" x="35" y="35" fill="transparent"></rect></g><g transform="translate(1155,1980)" width="110" height="110"><g transform="translate(30,30)"><path stroke="none" d="
    M 0, 16.6
    C 0, 2.9299 2.9299, 0 16.6, 0
    L 33.4, 0
    C 47.0701, 0 50, 2.9299 50, 16.6
    L 50, 33.4
    C 50, 47.0701 47.0701, 50 33.4, 50
    L 16.6, 50
    C 2.9299, 50 0, 47.0701 0, 33.4
    L 0, 16.6
  " stroke-width="2" fill="#d2e2fc"></path></g><svg viewBox="0 0 50 50" width="35" height="35" x="37.5" y="37.5"><svg id="Hz8zxwtcKplaKuUsf7t3W" xmlns="http://www.w3.org/2000/svg" viewBox="4.58 4.45 41.6 41.6" width="50" height="50"><g fill="none" fill-rule="evenodd"><path fill="#4285F4" d="M27.434 37.29h-4v-20h4v20Z"></path><path fill="#669DF6" d="M5.434 43.29h40v-4h-40v4Z"></path><path fill="#AECBFA" d="M21.434 45.29h8v-8h-8v8zm24-40h-40v12h40v-12z"></path><path fill="#669DF6" d="M45.434 5.29h-20v12h20v-12Z"></path><path fill="#fff" d="M13.434 9.29h-4v4h4v-4Z"></path><path fill="#AECBFA" d="M45.434 21.29h-40v12h40v-12Z"></path><path fill="#669DF6" d="M45.434 21.29h-20v12h20v-12Z"></path><path fill="#fff" d="M13.434 25.29h-4v4h4v-4Z"></path></g></svg></svg><g transform="translate(55, 89)"><text x="0" y="0" text-anchor="middle" style="fill:#101840;font-size:10px" dominant-baseline="middle" alignment-baseline="middle"><tspan>AWS DNS</tspan></text></g><rect width="60" height="60" x="25" y="25" fill="transparent"></rect><rect width="40" height="40" x="35" y="35" fill="transparent"></rect></g><g transform="translate(990,1870)" width="110" height="110"><g transform="translate(30,30)"><path stroke="none" d="
    M 0, 16.6
    C 0, 2.9299 2.9299, 0 16.6, 0
    L 33.4, 0
    C 47.0701, 0 50, 2.9299 50, 16.6
    L 50, 33.4
    C 50, 47.0701 47.0701, 50 33.4, 50
    L 16.6, 50
    C 2.9299, 50 0, 47.0701 0, 33.4
    L 0, 16.6
  " stroke-width="2" fill="#dfe1e3"></path></g><svg viewBox="0 0 50 50" width="35" height="35" x="37.5" y="37.5"><svg id="VdcGrNMcDBCpRPvI9c3Pq" xmlns="http://www.w3.org/2000/svg" viewBox="4.2 4.2 41.53 40.72" width="50" height="50"><path fill="#232F3D" fill-rule="evenodd" d="M41.596 38.11v1.865c0 .424-.318.77-.712.77h-9.64c-.394 0-.712-.346-.712-.77V38.11c0-.425.318-.77.712-.77h9.64c.394 0 .712.345.712.77zm1.702 3.761a.585.585 0 0 1-.592.576H7.296a.585.585 0 0 1-.594-.576v-4.807c0-.317.266-.575.593-.575h35.41c.327 0 .593.258.593.575v4.807zm-.713-7.084H7.415c-1.33 0-2.415 1.04-2.415 2.319v4.724c0 1.278 1.084 2.319 2.416 2.319h35.17c1.33 0 2.414-1.04 2.414-2.32v-4.723c0-1.279-1.083-2.319-2.415-2.319zM10.106 27.98h29.788V10.106H10.106V27.98zM40.312 8.404H9.689c-.708 0-1.285.572-1.285 1.276v18.725c0 .703.577 1.276 1.285 1.276h30.623c.708 0 1.284-.573 1.284-1.276V9.68a1.28 1.28 0 0 0-1.284-1.276zm2.986 22.384a.594.594 0 0 1-.592.595H7.296a.595.595 0 0 1-.594-.595V7.298c0-.329.266-.596.593-.596h35.41c.327 0 .593.267.593.595v23.49zM42.585 5H7.415A2.42 2.42 0 0 0 5 7.418v23.25a2.42 2.42 0 0 0 2.416 2.417h35.17A2.419 2.419 0 0 0 45 30.667V7.417A2.419 2.419 0 0 0 42.585 5z"></path></svg></svg><g transform="translate(55, 89)"><text x="0" y="0" text-anchor="middle" style="fill:#101840;font-size:10px" dominant-baseline="middle" alignment-baseline="middle"><tspan>http://thinkmoreapp.com</tspan></text></g><rect width="60" height="60" x="25" y="25" fill="transparent"></rect><rect width="40" height="40" x="35" y="35" fill="transparent"></rect></g><g transform="translate(1540,2255)" width="110" height="110"><g transform="translate(30,30)"><path stroke="none" d="
    M 0, 16.6
    C 0, 2.9299 2.9299, 0 16.6, 0
    L 33.4, 0
    C 47.0701, 0 50, 2.9299 50, 16.6
    L 50, 33.4
    C 50, 47.0701 47.0701, 50 33.4, 50
    L 16.6, 50
    C 2.9299, 50 0, 47.0701 0, 33.4
    L 0, 16.6
  " stroke-width="2" fill="#c9e4fc"></path></g><svg viewBox="0 0 50 50" width="35" height="35" x="37.5" y="37.5"><svg id="7JlDs6WodwV8-fg0CeX74" xmlns="http://www.w3.org/2000/svg" viewBox="4.2 4.2 41.53 40.6" width="50" height="50"><g fill="none" fill-rule="evenodd"><path d="M0 0h50v50H0z"></path><path fill="#161514" d="M24.998 5C13.955 5 5 13.954 5 25c0 8.837 5.73 16.333 13.678 18.977 1 .184 1.365-.433 1.365-.964 0-.473-.017-1.732-.027-3.4-5.563 1.208-6.737-2.682-6.737-2.682-.91-2.31-2.221-2.926-2.221-2.926-1.816-1.24.137-1.215.137-1.215 2.008.14 3.064 2.061 3.064 2.061 1.784 3.056 4.681 2.173 5.82 1.661.182-1.291.7-2.173 1.27-2.673-4.44-.504-9.11-2.22-9.11-9.884 0-2.183.78-3.97 2.059-5.367-.206-.506-.893-2.54.196-5.293 0 0 1.679-.538 5.5 2.05A19.157 19.157 0 0 1 25 14.671c1.699.009 3.41.23 5.007.674 3.818-2.588 5.494-2.05 5.494-2.05 1.091 2.753.405 4.787.2 5.293 1.282 1.397 2.055 3.184 2.055 5.367 0 7.683-4.676 9.374-9.13 9.868.716.618 1.356 1.838 1.356 3.705 0 2.673-.025 4.83-.025 5.485 0 .536.361 1.158 1.376.963C39.274 41.326 45 33.835 45 25.001 45 13.954 36.045 5 24.998 5"></path></g></svg></svg><g transform="translate(55, 89)"><text x="0" y="0" text-anchor="middle" style="fill:#101840;font-size:10px" dominant-baseline="middle" alignment-baseline="middle"><tspan>Frontend-Github</tspan></text></g><rect width="60" height="60" x="25" y="25" fill="transparent"></rect><rect width="40" height="40" x="35" y="35" fill="transparent"></rect></g><g transform="translate(1650,2145)" width="110" height="110"><g transform="translate(30,30)"><path stroke="none" d="
    M 0, 16.6
    C 0, 2.9299 2.9299, 0 16.6, 0
    L 33.4, 0
    C 47.0701, 0 50, 2.9299 50, 16.6
    L 50, 33.4
    C 50, 47.0701 47.0701, 50 33.4, 50
    L 16.6, 50
    C 2.9299, 50 0, 47.0701 0, 33.4
    L 0, 16.6
  " stroke-width="2" fill="#e8dcf2"></path></g><svg viewBox="0 0 50 50" width="35" height="35" x="37.5" y="37.5"><svg id="5lr3STGE1EO0h8AghbNoE" xmlns="http://www.w3.org/2000/svg" viewBox="4.2 4.2 41.53 40.6" width="50" height="50"><g fill="none" fill-rule="evenodd"><path d="M0 0h50v50H0z"></path><path fill="#161514" d="M24.998 5C13.955 5 5 13.954 5 25c0 8.837 5.73 16.333 13.678 18.977 1 .184 1.365-.433 1.365-.964 0-.473-.017-1.732-.027-3.4-5.563 1.208-6.737-2.682-6.737-2.682-.91-2.31-2.221-2.926-2.221-2.926-1.816-1.24.137-1.215.137-1.215 2.008.14 3.064 2.061 3.064 2.061 1.784 3.056 4.681 2.173 5.82 1.661.182-1.291.7-2.173 1.27-2.673-4.44-.504-9.11-2.22-9.11-9.884 0-2.183.78-3.97 2.059-5.367-.206-.506-.893-2.54.196-5.293 0 0 1.679-.538 5.5 2.05A19.157 19.157 0 0 1 25 14.671c1.699.009 3.41.23 5.007.674 3.818-2.588 5.494-2.05 5.494-2.05 1.091 2.753.405 4.787.2 5.293 1.282 1.397 2.055 3.184 2.055 5.367 0 7.683-4.676 9.374-9.13 9.868.716.618 1.356 1.838 1.356 3.705 0 2.673-.025 4.83-.025 5.485 0 .536.361 1.158 1.376.963C39.274 41.326 45 33.835 45 25.001 45 13.954 36.045 5 24.998 5"></path></g></svg></svg><g transform="translate(55, 89)"><text x="0" y="0" text-anchor="middle" style="fill:#101840;font-size:10px" dominant-baseline="middle" alignment-baseline="middle"><tspan>Backed-Github</tspan></text></g><rect width="60" height="60" x="25" y="25" fill="transparent"></rect><rect width="40" height="40" x="35" y="35" fill="transparent"></rect></g><g transform="translate(1265,1870)" width="110" height="110"><g transform="translate(30,30)"><path stroke="none" d="
    M 0, 16.6
    C 0, 2.9299 2.9299, 0 16.6, 0
    L 33.4, 0
    C 47.0701, 0 50, 2.9299 50, 16.6
    L 50, 33.4
    C 50, 47.0701 47.0701, 50 33.4, 50
    L 16.6, 50
    C 2.9299, 50 0, 47.0701 0, 33.4
    L 0, 16.6
  " stroke-width="2" fill="#c8e8d4"></path></g><svg viewBox="0 0 50 50" width="35" height="35" x="37.5" y="37.5"><svg id="Y8eXP_hUdjOD0NZwqt1EL" xmlns="http://www.w3.org/2000/svg" viewBox="6.58 4.58 36.79 41.6" width="50" height="50"><g fill="none" fill-rule="evenodd"><path fill="#009639" d="M7.68 35.424c.18.314.442.575.758.753l15.53 8.966a2.038 2.038 0 0 0 2.064 0l15.53-8.967a2.037 2.037 0 0 0 1.032-1.786V16.458a2.037 2.037 0 0 0-1.033-1.788l-15.53-8.966a2.035 2.035 0 0 0-2.062 0L8.439 14.67a2.035 2.035 0 0 0-1.032 1.787V34.39c-.004.363.09.72.272 1.034"></path><path fill="#fff" d="M20.028 32.25a1.997 1.997 0 1 1-3.994 0l.002-13.71c0-1.061.938-1.94 2.268-1.94a3.55 3.55 0 0 1 2.722 1.217l.604.723 8.343 9.985v-9.929h-.001a1.998 1.998 0 0 1 3.994 0l-.002 13.71c0 1.061-.939 1.94-2.268 1.94a3.548 3.548 0 0 1-2.722-1.218l-8.947-10.707v9.93-.001Z"></path><path fill="#999" d="M40.72 41.709h.255v-.569h.201a.577.577 0 0 1 .284.048.355.355 0 0 1 .135.33v.117l.005.043a.094.094 0 0 1 .004.019c.002.007.002.009.006.012h.237l-.009-.016a.167.167 0 0 1-.011-.074c-.004-.041-.004-.076-.004-.108v-.108a.412.412 0 0 0-.079-.225.369.369 0 0 0-.252-.142.622.622 0 0 0 .21-.068.315.315 0 0 0 .141-.286.356.356 0 0 0-.223-.367 1.112 1.112 0 0 0-.396-.052h-.505v1.446Zm.725-.78a.66.66 0 0 1-.242.033h-.228v-.527h.217a.642.642 0 0 1 .307.057.22.22 0 0 1 .096.21.223.223 0 0 1-.15.227Zm.741-.868a1.283 1.283 0 0 0-.937-.384 1.318 1.318 0 1 0 .734 2.416 1.321 1.321 0 0 0 .203-2.032Zm-.134.13a1.082 1.082 0 0 1 .331.802 1.132 1.132 0 0 1-1.936.806 1.119 1.119 0 0 1-.33-.806 1.136 1.136 0 0 1 1.57-1.054c.137.058.262.144.365.252"></path></g></svg></svg><g transform="translate(55, 89)"><text x="0" y="0" text-anchor="middle" style="fill:#101840;font-size:10px" dominant-baseline="middle" alignment-baseline="middle"><tspan>NGINX</tspan><tspan x="0" y="12" text-anchor="middle" style="fill:#101840;font-size:10px">https://img.thinkmoreapp.com/</tspan></text></g><rect width="60" height="60" x="25" y="25" fill="transparent"></rect><rect width="40" height="40" x="35" y="35" fill="transparent"></rect></g><g transform="translate(1760,2200)" width="110" height="110"><g transform="translate(30,30)"><path stroke="none" d="
    M 0, 16.6
    C 0, 2.9299 2.9299, 0 16.6, 0
    L 33.4, 0
    C 47.0701, 0 50, 2.9299 50, 16.6
    L 50, 33.4
    C 50, 47.0701 47.0701, 50 33.4, 50
    L 16.6, 50
    C 2.9299, 50 0, 47.0701 0, 33.4
    L 0, 16.6
  " stroke-width="2" fill="#cde3ff"></path></g><svg viewBox="0 0 50 50" width="35" height="35" x="37.5" y="37.5"><svg id="IVCpaY5LSqYz02aKy610m" xmlns="http://www.w3.org/2000/svg" viewBox="4.2 6.01 41.53 37.91" width="50" height="50"><g fill="none" fill-rule="evenodd"><path fill="url(#SFFCU74FEr9Q1i5AaRX7s)" d="m29.614 6.851-6.806 26.85c8.661 2.454 15.573-.724 18.22-11.158L45 6.87l-15.386-.019Z"></path><path fill="#2684FF" d="m20.41 43.149 6.807-26.85c-8.667-2.435-15.573.743-18.22 11.195L5 43.15h15.41Z"></path><defs><linearGradient id="SFFCU74FEr9Q1i5AaRX7s" x1="20.791" x2="34.766" y1="33.807" y2="17.017" gradientUnits="userSpaceOnUse"><stop stop-color="#0052CC"></stop><stop offset="1" stop-color="#2684FF"></stop></linearGradient></defs></g></svg></svg><g transform="translate(55, 89)"><text x="0" y="0" text-anchor="middle" style="fill:#101840;font-size:10px" dominant-baseline="middle" alignment-baseline="middle"><tspan>Jira </tspan></text></g><rect width="60" height="60" x="25" y="25" fill="transparent"></rect><rect width="40" height="40" x="35" y="35" fill="transparent"></rect></g><g transform="translate(1540,2145)" width="110" height="110"><g transform="translate(30,30)"><path stroke="none" d="
    M 0, 16.6
    C 0, 2.9299 2.9299, 0 16.6, 0
    L 33.4, 0
    C 47.0701, 0 50, 2.9299 50, 16.6
    L 50, 33.4
    C 50, 47.0701 47.0701, 50 33.4, 50
    L 16.6, 50
    C 2.9299, 50 0, 47.0701 0, 33.4
    L 0, 16.6
  " stroke-width="2" fill="#e0dff3"></path></g><svg viewBox="0 0 50 50" width="35" height="35" x="37.5" y="37.5"><svg id="EzrWbKEiKXvNeZDzJUEus" xmlns="http://www.w3.org/2000/svg" viewBox="4.51 4.95 41.6 40.23" width="50" height="50"><path fill="#2E27AD" fill-rule="evenodd" d="M42.868 12.694 38.76 8.935l-4.11 3.76h8.217zm-5.682-4.18-8.33.012 4.45 3.536 3.88-3.548zM33.43 20.625l-6.556 2.414h12.61l-6.054-2.414zm-9.625 16.207h18.48V24.418h-18.48v12.414zm8.085-24.138-4.541-3.61-4.512 3.61h9.053zm-10.491-.61 4.44-3.553-8.853.013 4.413 3.54zm-1.438.61-4.533-3.637-4.532 3.637h9.065zm-3.001 1.38H11.42l5.539 5.493v-5.493zm0 7.643-6.5 5.919 6.5 6.361v-12.28zm0 14.52-6.845 6.691v.111h6.845v-6.802zm-6.845-7.016v11.786l6.025-5.89-6.025-5.896zm0-3.13 5.98-5.446-5.98-5.931V26.09zM9.43 12.106l4.434-3.558-4.434.007v3.55zm-1.369-4.93H6.692v6.897h1.37V7.177zm37.216 6.455a.685.685 0 0 1-.638.442H34.072v5.517l9.157 3.5c.25.103.426.35.426.638v13.793c0 .38-.306.69-.685.69H23.12a.687.687 0 0 1-.684-.69V23.729c0-.295.186-.543.445-.64l-.002-.006 9.824-3.492v-5.517H18.328v29.655c0 .38-.305.69-.684.69H9.43a.687.687 0 0 1-.684-.69V15.453H6.008a.687.687 0 0 1-.685-.69V6.487c0-.38.307-.69.685-.69h2.738c.378 0 .684.31.684.69v.69h29.433l6.236 5.697c.209.191.28.493.178.758zM31.074 35.665l3.984-9.12-1.252-.556-3.984 9.12 1.253.556zm3.743-3.048.885 1.053 2.957-2.523a.695.695 0 0 0 .044-1.01l-2.468-2.523-.975.969 1.95 1.993-2.393 2.041zm-8.893-2.003a.69.69 0 0 1 .055-1.062l3.359-2.505.814 1.109-2.69 2.007 2.258 2.086-.926 1.017-2.87-2.652z" clip-rule="evenodd"></path></svg></svg><g transform="translate(55, 89)"><text x="0" y="0" text-anchor="middle" style="fill:#101840;font-size:10px" dominant-baseline="middle" alignment-baseline="middle"><tspan>Github Action</tspan></text></g><rect width="60" height="60" x="25" y="25" fill="transparent"></rect><rect width="40" height="40" x="35" y="35" fill="transparent"></rect></g><g transform="translate(1100,2310)" width="110" height="110"><g transform="translate(30,30)"><path stroke="none" d="
    M 0, 16.6
    C 0, 2.9299 2.9299, 0 16.6, 0
    L 33.4, 0
    C 47.0701, 0 50, 2.9299 50, 16.6
    L 50, 33.4
    C 50, 47.0701 47.0701, 50 33.4, 50
    L 16.6, 50
    C 2.9299, 50 0, 47.0701 0, 33.4
    L 0, 16.6
  " stroke-width="2" fill="#e0dff3"></path></g><svg viewBox="0 0 50 50" width="35" height="35" x="37.5" y="37.5"><svg id="1oA9JZNxlUMHQFIrDi2m7" xmlns="http://www.w3.org/2000/svg" viewBox="4.51 4.95 41.6 40.23" width="50" height="50"><path fill="#2E27AD" fill-rule="evenodd" d="M42.868 12.694 38.76 8.935l-4.11 3.76h8.217zm-5.682-4.18-8.33.012 4.45 3.536 3.88-3.548zM33.43 20.625l-6.556 2.414h12.61l-6.054-2.414zm-9.625 16.207h18.48V24.418h-18.48v12.414zm8.085-24.138-4.541-3.61-4.512 3.61h9.053zm-10.491-.61 4.44-3.553-8.853.013 4.413 3.54zm-1.438.61-4.533-3.637-4.532 3.637h9.065zm-3.001 1.38H11.42l5.539 5.493v-5.493zm0 7.643-6.5 5.919 6.5 6.361v-12.28zm0 14.52-6.845 6.691v.111h6.845v-6.802zm-6.845-7.016v11.786l6.025-5.89-6.025-5.896zm0-3.13 5.98-5.446-5.98-5.931V26.09zM9.43 12.106l4.434-3.558-4.434.007v3.55zm-1.369-4.93H6.692v6.897h1.37V7.177zm37.216 6.455a.685.685 0 0 1-.638.442H34.072v5.517l9.157 3.5c.25.103.426.35.426.638v13.793c0 .38-.306.69-.685.69H23.12a.687.687 0 0 1-.684-.69V23.729c0-.295.186-.543.445-.64l-.002-.006 9.824-3.492v-5.517H18.328v29.655c0 .38-.305.69-.684.69H9.43a.687.687 0 0 1-.684-.69V15.453H6.008a.687.687 0 0 1-.685-.69V6.487c0-.38.307-.69.685-.69h2.738c.378 0 .684.31.684.69v.69h29.433l6.236 5.697c.209.191.28.493.178.758zM31.074 35.665l3.984-9.12-1.252-.556-3.984 9.12 1.253.556zm3.743-3.048.885 1.053 2.957-2.523a.695.695 0 0 0 .044-1.01l-2.468-2.523-.975.969 1.95 1.993-2.393 2.041zm-8.893-2.003a.69.69 0 0 1 .055-1.062l3.359-2.505.814 1.109-2.69 2.007 2.258 2.086-.926 1.017-2.87-2.652z" clip-rule="evenodd"></path></svg></svg><g transform="translate(55, 89)"><text x="0" y="0" text-anchor="middle" style="fill:#101840;font-size:10px" dominant-baseline="middle" alignment-baseline="middle"><tspan>Vercel CD/CD</tspan></text></g><rect width="60" height="60" x="25" y="25" fill="transparent"></rect><rect width="40" height="40" x="35" y="35" fill="transparent"></rect></g><g transform="translate(1485,2035)" width="110" height="110"><g transform="translate(30,30)"><path stroke="none" d="
    M 0, 16.6
    C 0, 2.9299 2.9299, 0 16.6, 0
    L 33.4, 0
    C 47.0701, 0 50, 2.9299 50, 16.6
    L 50, 33.4
    C 50, 47.0701 47.0701, 50 33.4, 50
    L 16.6, 50
    C 2.9299, 50 0, 47.0701 0, 33.4
    L 0, 16.6
  " stroke-width="2" fill="#c4e6f8"></path></g><svg viewBox="0 0 50 50" width="35" height="35" x="37.5" y="37.5"><svg id="Jx-QntmXNzIVjZcICQIOD" xmlns="http://www.w3.org/2000/svg" viewBox="4.14 10.26 41.6 30.29" width="50" height="50"><g fill="#0091E2" fill-rule="evenodd"><path d="M44.61 21.886c-.11-.093-1.113-.855-3.265-.855-.556 0-1.131.056-1.688.149-.408-2.845-2.764-4.22-2.857-4.295l-.575-.335-.371.54a7.96 7.96 0 0 0-1.02 2.38c-.39 1.617-.149 3.141.667 4.442-.983.558-2.578.688-2.912.707H6.245c-.686 0-1.243.558-1.243 1.245a18.847 18.847 0 0 0 1.15 6.786c.91 2.38 2.264 4.146 4.008 5.224 1.966 1.208 5.176 1.896 8.793 1.896a26.91 26.91 0 0 0 4.88-.446A20.109 20.109 0 0 0 30.213 37a17.478 17.478 0 0 0 4.341-3.57c2.097-2.36 3.34-5 4.249-7.343h.37c2.283 0 3.692-.91 4.472-1.691a4.95 4.95 0 0 0 1.187-1.748l.167-.483-.39-.279z"></path><path d="M8.714 23.913h3.528c.167 0 .315-.13.315-.316v-3.158a.313.313 0 0 0-.315-.316H8.714a.313.313 0 0 0-.316.316v3.158c.019.186.149.316.316.316zm4.864 0h3.529c.167 0 .315-.13.315-.316v-3.158a.313.313 0 0 0-.316-.316h-3.528a.313.313 0 0 0-.315.316v3.158c.018.186.148.316.316.316zm4.958 0h3.528c.167 0 .316-.13.316-.316v-3.158a.313.313 0 0 0-.316-.316h-3.528a.313.313 0 0 0-.316.316v3.158c0 .186.13.316.316.316zm4.884 0h3.528c.167 0 .315-.13.315-.316v-3.158a.313.313 0 0 0-.315-.316H23.42a.313.313 0 0 0-.316.316v3.158c0 .186.149.316.316.316zm-9.841-4.514h3.528a.325.325 0 0 0 .315-.316v-3.158a.313.313 0 0 0-.316-.316h-3.528a.313.313 0 0 0-.315.316v3.158c.018.167.148.316.316.316zm4.957 0h3.528a.325.325 0 0 0 .316-.316v-3.158a.313.313 0 0 0-.316-.316h-3.528a.313.313 0 0 0-.316.316v3.158c0 .167.13.316.316.316zm4.884 0h3.528a.325.325 0 0 0 .315-.316v-3.158a.325.325 0 0 0-.315-.316H23.42a.313.313 0 0 0-.316.316v3.158c0 .167.149.316.316.316zm0-4.533h3.528c.167 0 .315-.13.315-.316v-3.158a.325.325 0 0 0-.315-.316H23.42a.313.313 0 0 0-.316.316v3.158c0 .167.149.316.316.316zm4.92 9.047h3.528c.167 0 .316-.13.316-.316v-3.158a.313.313 0 0 0-.316-.316H28.34a.313.313 0 0 0-.315.316v3.158c.018.186.148.316.315.316z"></path></g></svg></svg><g transform="translate(55, 89)"><text x="0" y="0" text-anchor="middle" style="fill:#101840;font-size:10px" dominant-baseline="middle" alignment-baseline="middle"><tspan>Docker</tspan></text></g><rect width="60" height="60" x="25" y="25" fill="transparent"></rect><rect width="40" height="40" x="35" y="35" fill="transparent"></rect></g><marker id="arrowhead_arr_A810qZIBMNyM0M4WunwwM" refX="1" refY="3" orient="auto" markerWidth="8" markerHeight="8"><path d="M2.91922181,1.64495663 L4.49787879,4.07365967 C4.64837316,4.30518948 4.58268096,4.61488128 4.35115115,4.76537565 C4.27004602,4.81809399 4.17538993,4.84615385 4.07865698,4.84615385 L0.921343022,4.84615385 C0.645200647,4.84615385 0.421343022,4.62229622 0.421343022,4.34615385 C0.421343022,4.24942089 0.44940288,4.1547648 0.502121214,4.07365967 L2.08077819,1.64495663 C2.23127257,1.41342682 2.54096436,1.34773462 2.77249418,1.498229 C2.83112579,1.53633954 2.88111126,1.58632502 2.91922181,1.64495663 Z" fill="#afb4b7" transform="translate(2.500000, 2.923077) rotate(90.000000) translate(-2.500000, -2.923077)"></path></marker><path style="stroke-width:2px;stroke:#afb4b7" stroke-linecap="round" marker-end="url(#arrowhead_arr_A810qZIBMNyM0M4WunwwM)" d="M 1045 2197 L 1045 2221  " fill="none" pointer-events="stroke" stroke-linejoin="round"></path><path style="stroke-width:4px;stroke:transparent" d="M 1045 2197 L 1045 2221  " fill="none" pointer-events="stroke"></path><marker id="arrowhead_arr_XA6wQEO8dRFOQSXbbKzAz" refX="1" refY="3" orient="auto" markerWidth="8" markerHeight="8"><path d="M2.91922181,1.64495663 L4.49787879,4.07365967 C4.64837316,4.30518948 4.58268096,4.61488128 4.35115115,4.76537565 C4.27004602,4.81809399 4.17538993,4.84615385 4.07865698,4.84615385 L0.921343022,4.84615385 C0.645200647,4.84615385 0.421343022,4.62229622 0.421343022,4.34615385 C0.421343022,4.24942089 0.44940288,4.1547648 0.502121214,4.07365967 L2.08077819,1.64495663 C2.23127257,1.41342682 2.54096436,1.34773462 2.77249418,1.498229 C2.83112579,1.53633954 2.88111126,1.58632502 2.91922181,1.64495663 Z" fill="#afb4b7" transform="translate(2.500000, 2.923077) rotate(90.000000) translate(-2.500000, -2.923077)"></path></marker><path style="stroke-width:2px;stroke:#afb4b7" stroke-linecap="round" marker-end="url(#arrowhead_arr_XA6wQEO8dRFOQSXbbKzAz)" d="M 1074 2255 L 1121 2255  " fill="none" pointer-events="stroke" stroke-linejoin="round"></path><path style="stroke-width:4px;stroke:transparent" d="M 1074 2255 L 1121 2255  " fill="none" pointer-events="stroke"></path><marker id="arrowhead_arr_NRQQzKmOp6TxJCjN4fVNb" refX="1" refY="3" orient="auto" markerWidth="8" markerHeight="8"><path d="M2.91922181,1.64495663 L4.49787879,4.07365967 C4.64837316,4.30518948 4.58268096,4.61488128 4.35115115,4.76537565 C4.27004602,4.81809399 4.17538993,4.84615385 4.07865698,4.84615385 L0.921343022,4.84615385 C0.645200647,4.84615385 0.421343022,4.62229622 0.421343022,4.34615385 C0.421343022,4.24942089 0.44940288,4.1547648 0.502121214,4.07365967 L2.08077819,1.64495663 C2.23127257,1.41342682 2.54096436,1.34773462 2.77249418,1.498229 C2.83112579,1.53633954 2.88111126,1.58632502 2.91922181,1.64495663 Z" fill="#afb4b7" transform="translate(2.500000, 2.923077) rotate(90.000000) translate(-2.500000, -2.923077)"></path></marker><path style="stroke-width:2px;stroke:#afb4b7" stroke-linecap="round" marker-end="url(#arrowhead_arr_NRQQzKmOp6TxJCjN4fVNb)" d="M 1184 2259.5 L 1293.6125 2259.5 M 1341.3875 2259.5 L 1451 2259.5  " fill="none" pointer-events="stroke" stroke-linejoin="round"></path><path style="stroke-width:4px;stroke:transparent" d="M 1184 2259.5 L 1293.6125 2259.5 M 1341.3875 2259.5 L 1451 2259.5  " fill="none" pointer-events="stroke"></path><path id="arr_NRQQzKmOp6TxJCjN4fVNb-label" d="M 1293.6125 2259.5 L 1341.3875 2259.5  "></path><text font-size="8" dominant-baseline="middle"><textPath href="#arr_NRQQzKmOp6TxJCjN4fVNb-label" alignment-baseline="middle" dominant-baseline="middle" startOffset="3">Static Html</textPath></text><marker id="arrowhead_arr_kLqbhanADfIf636uBXiEn" refX="1" refY="3" orient="auto" markerWidth="8" markerHeight="8"><path d="M2.91922181,1.64495663 L4.49787879,4.07365967 C4.64837316,4.30518948 4.58268096,4.61488128 4.35115115,4.76537565 C4.27004602,4.81809399 4.17538993,4.84615385 4.07865698,4.84615385 L0.921343022,4.84615385 C0.645200647,4.84615385 0.421343022,4.62229622 0.421343022,4.34615385 C0.421343022,4.24942089 0.44940288,4.1547648 0.502121214,4.07365967 L2.08077819,1.64495663 C2.23127257,1.41342682 2.54096436,1.34773462 2.77249418,1.498229 C2.83112579,1.53633954 2.88111126,1.58632502 2.91922181,1.64495663 Z" fill="#afb4b7" transform="translate(2.500000, 2.923077) rotate(90.000000) translate(-2.500000, -2.923077)"></path></marker><marker id="arrowhead_src_arr_kLqbhanADfIf636uBXiEn" refX="4" refY="3" orient="auto" markerWidth="8" markerHeight="8"><path d="M2.91922181,1.64495663 L4.49787879,4.07365967 C4.64837316,4.30518948 4.58268096,4.61488128 4.35115115,4.76537565 C4.27004602,4.81809399 4.17538993,4.84615385 4.07865698,4.84615385 L0.921343022,4.84615385 C0.645200647,4.84615385 0.421343022,4.62229622 0.421343022,4.34615385 C0.421343022,4.24942089 0.44940288,4.1547648 0.502121214,4.07365967 L2.08077819,1.64495663 C2.23127257,1.41342682 2.54096436,1.34773462 2.77249418,1.498229 C2.83112579,1.53633954 2.88111126,1.58632502 2.91922181,1.64495663 Z" fill="#afb4b7" transform="translate(2.500000, 2.923077) rotate(270.000000) translate(-2.500000, -2.923077)"></path></marker><path style="stroke-width:2px;stroke:#afb4b7" stroke-linecap="round" marker-start="url(#arrowhead_src_arr_kLqbhanADfIf636uBXiEn)" marker-end="url(#arrowhead_arr_kLqbhanADfIf636uBXiEn)" d="M 1519 1975.5 L 1545.51875 1975.5 M 1568.48125 1975.5 L 1591 1975.5 C 1593 1975.5 1595 1973.5 1595 1971.5 L 1595 1917  " fill="none" pointer-events="stroke" stroke-linejoin="round"></path><path style="stroke-width:4px;stroke:transparent" d="M 1519 1975.5 L 1545.51875 1975.5 M 1568.48125 1975.5 L 1591 1975.5 C 1593 1975.5 1595 1973.5 1595 1971.5 L 1595 1917  " fill="none" pointer-events="stroke"></path><path id="arr_kLqbhanADfIf636uBXiEn-label" d="M 1545.51875 1975.5 L 1568.48125 1975.5  "></path><text font-size="8" dominant-baseline="middle"><textPath href="#arr_kLqbhanADfIf636uBXiEn-label" alignment-baseline="middle" dominant-baseline="middle" startOffset="3">Post</textPath></text><marker id="arrowhead_arr_SzGD0kpygFaQalcNF0sGR" refX="1" refY="3" orient="auto" markerWidth="8" markerHeight="8"><path d="M2.91922181,1.64495663 L4.49787879,4.07365967 C4.64837316,4.30518948 4.58268096,4.61488128 4.35115115,4.76537565 C4.27004602,4.81809399 4.17538993,4.84615385 4.07865698,4.84615385 L0.921343022,4.84615385 C0.645200647,4.84615385 0.421343022,4.62229622 0.421343022,4.34615385 C0.421343022,4.24942089 0.44940288,4.1547648 0.502121214,4.07365967 L2.08077819,1.64495663 C2.23127257,1.41342682 2.54096436,1.34773462 2.77249418,1.498229 C2.83112579,1.53633954 2.88111126,1.58632502 2.91922181,1.64495663 Z" fill="#afb4b7" transform="translate(2.500000, 2.923077) rotate(90.000000) translate(-2.500000, -2.923077)"></path></marker><path style="stroke-width:2px;stroke:#afb4b7" stroke-linecap="round" marker-end="url(#arrowhead_arr_SzGD0kpygFaQalcNF0sGR)" d="M 1489.5 1951 L 1489.5 1947.03125 M 1489.5 1920.96875 L 1489.5 1917  " fill="none" pointer-events="stroke" stroke-linejoin="round"></path><path style="stroke-width:4px;stroke:transparent" d="M 1489.5 1951 L 1489.5 1947.03125 M 1489.5 1920.96875 L 1489.5 1917  " fill="none" pointer-events="stroke"></path><path id="arr_SzGD0kpygFaQalcNF0sGR-label" d="M 1489.5 1947.03125 L 1489.5 1920.96875  "></path><text font-size="8" dominant-baseline="middle"><textPath href="#arr_SzGD0kpygFaQalcNF0sGR-label" alignment-baseline="middle" dominant-baseline="middle" startOffset="3">Email</textPath></text><marker id="arrowhead_arr_sL9uRCf8gxHnO4tbw23O8" refX="1" refY="3" orient="auto" markerWidth="8" markerHeight="8"><path d="M2.91922181,1.64495663 L4.49787879,4.07365967 C4.64837316,4.30518948 4.58268096,4.61488128 4.35115115,4.76537565 C4.27004602,4.81809399 4.17538993,4.84615385 4.07865698,4.84615385 L0.921343022,4.84615385 C0.645200647,4.84615385 0.421343022,4.62229622 0.421343022,4.34615385 C0.421343022,4.24942089 0.44940288,4.1547648 0.502121214,4.07365967 L2.08077819,1.64495663 C2.23127257,1.41342682 2.54096436,1.34773462 2.77249418,1.498229 C2.83112579,1.53633954 2.88111126,1.58632502 2.91922181,1.64495663 Z" fill="#afb4b7" transform="translate(2.500000, 2.923077) rotate(90.000000) translate(-2.500000, -2.923077)"></path></marker><path style="stroke-width:2px;stroke:#afb4b7" stroke-linecap="round" marker-end="url(#arrowhead_arr_sL9uRCf8gxHnO4tbw23O8)" d="M 1485 1841 L 1485 1807  " fill="none" pointer-events="stroke" stroke-linejoin="round"></path><path style="stroke-width:4px;stroke:transparent" d="M 1485 1841 L 1485 1807  " fill="none" pointer-events="stroke"></path><marker id="arrowhead_arr_7l6f2OIi2DvUa8CjMat33" refX="1" refY="3" orient="auto" markerWidth="8" markerHeight="8"><path d="M2.91922181,1.64495663 L4.49787879,4.07365967 C4.64837316,4.30518948 4.58268096,4.61488128 4.35115115,4.76537565 C4.27004602,4.81809399 4.17538993,4.84615385 4.07865698,4.84615385 L0.921343022,4.84615385 C0.645200647,4.84615385 0.421343022,4.62229622 0.421343022,4.34615385 C0.421343022,4.24942089 0.44940288,4.1547648 0.502121214,4.07365967 L2.08077819,1.64495663 C2.23127257,1.41342682 2.54096436,1.34773462 2.77249418,1.498229 C2.83112579,1.53633954 2.88111126,1.58632502 2.91922181,1.64495663 Z" fill="#afb4b7" transform="translate(2.500000, 2.923077) rotate(90.000000) translate(-2.500000, -2.923077)"></path></marker><marker id="arrowhead_src_arr_7l6f2OIi2DvUa8CjMat33" refX="4" refY="3" orient="auto" markerWidth="8" markerHeight="8"><path d="M2.91922181,1.64495663 L4.49787879,4.07365967 C4.64837316,4.30518948 4.58268096,4.61488128 4.35115115,4.76537565 C4.27004602,4.81809399 4.17538993,4.84615385 4.07865698,4.84615385 L0.921343022,4.84615385 C0.645200647,4.84615385 0.421343022,4.62229622 0.421343022,4.34615385 C0.421343022,4.24942089 0.44940288,4.1547648 0.502121214,4.07365967 L2.08077819,1.64495663 C2.23127257,1.41342682 2.54096436,1.34773462 2.77249418,1.498229 C2.83112579,1.53633954 2.88111126,1.58632502 2.91922181,1.64495663 Z" fill="#afb4b7" transform="translate(2.500000, 2.923077) rotate(270.000000) translate(-2.500000, -2.923077)"></path></marker><path style="stroke-width:2px;stroke:#afb4b7" stroke-linecap="round" marker-start="url(#arrowhead_src_arr_7l6f2OIi2DvUa8CjMat33)" marker-end="url(#arrowhead_arr_7l6f2OIi2DvUa8CjMat33)" d="M 1519 1984.5 L 1576.225 1984.5 M 1647.775 1984.5 L 1701 1984.5 C 1703 1984.5 1705 1982.5 1705 1980.5 L 1705 1917  " fill="none" pointer-events="stroke" stroke-linejoin="round"></path><path style="stroke-width:4px;stroke:transparent" d="M 1519 1984.5 L 1576.225 1984.5 M 1647.775 1984.5 L 1701 1984.5 C 1703 1984.5 1705 1982.5 1705 1980.5 L 1705 1917  " fill="none" pointer-events="stroke"></path><path id="arr_7l6f2OIi2DvUa8CjMat33-label" d="M 1576.225 1984.5 L 1647.775 1984.5  "></path><text font-size="8" dominant-baseline="middle"><textPath href="#arr_7l6f2OIi2DvUa8CjMat33-label" alignment-baseline="middle" dominant-baseline="middle" startOffset="3">Online User, JWT</textPath></text><marker id="arrowhead_arr_2sryrsx2Q7STSzDf7z7Qc" refX="1" refY="3" orient="auto" markerWidth="8" markerHeight="8"><path d="M2.91922181,1.64495663 L4.49787879,4.07365967 C4.64837316,4.30518948 4.58268096,4.61488128 4.35115115,4.76537565 C4.27004602,4.81809399 4.17538993,4.84615385 4.07865698,4.84615385 L0.921343022,4.84615385 C0.645200647,4.84615385 0.421343022,4.62229622 0.421343022,4.34615385 C0.421343022,4.24942089 0.44940288,4.1547648 0.502121214,4.07365967 L2.08077819,1.64495663 C2.23127257,1.41342682 2.54096436,1.34773462 2.77249418,1.498229 C2.83112579,1.53633954 2.88111126,1.58632502 2.91922181,1.64495663 Z" fill="#afb4b7" transform="translate(2.500000, 2.923077) rotate(90.000000) translate(-2.500000, -2.923077)"></path></marker><path style="stroke-width:2px;stroke:#afb4b7" stroke-linecap="round" marker-end="url(#arrowhead_arr_2sryrsx2Q7STSzDf7z7Qc)" d="M 1074 2035 L 1176 2035  " fill="none" pointer-events="stroke" stroke-linejoin="round"></path><path style="stroke-width:4px;stroke:transparent" d="M 1074 2035 L 1176 2035  " fill="none" pointer-events="stroke"></path><marker id="arrowhead_arr_bVOloO1X7EKix8vKFtIab" refX="1" refY="3" orient="auto" markerWidth="8" markerHeight="8"><path d="M2.91922181,1.64495663 L4.49787879,4.07365967 C4.64837316,4.30518948 4.58268096,4.61488128 4.35115115,4.76537565 C4.27004602,4.81809399 4.17538993,4.84615385 4.07865698,4.84615385 L0.921343022,4.84615385 C0.645200647,4.84615385 0.421343022,4.62229622 0.421343022,4.34615385 C0.421343022,4.24942089 0.44940288,4.1547648 0.502121214,4.07365967 L2.08077819,1.64495663 C2.23127257,1.41342682 2.54096436,1.34773462 2.77249418,1.498229 C2.83112579,1.53633954 2.88111126,1.58632502 2.91922181,1.64495663 Z" fill="#afb4b7" transform="translate(2.500000, 2.923077) rotate(90.000000) translate(-2.500000, -2.923077)"></path></marker><path style="stroke-width:2px;stroke:#afb4b7" stroke-linecap="round" marker-end="url(#arrowhead_arr_bVOloO1X7EKix8vKFtIab)" d="M 1210 2077 L 1210 2141 C 1210 2143 1208 2145 1206 2145 L 1163.35 2145 M 1125.65 2145 L 1079 2145  " fill="none" pointer-events="stroke" stroke-linejoin="round"></path><path style="stroke-width:4px;stroke:transparent" d="M 1210 2077 L 1210 2141 C 1210 2143 1208 2145 1206 2145 L 1163.35 2145 M 1125.65 2145 L 1079 2145  " fill="none" pointer-events="stroke"></path><path id="arr_bVOloO1X7EKix8vKFtIab-label" d="M 1125.65 2145 L 1163.35 2145  "></path><text font-size="8" dominant-baseline="middle"><textPath href="#arr_bVOloO1X7EKix8vKFtIab-label" alignment-baseline="middle" dominant-baseline="middle" startOffset="3">Redirect</textPath></text><marker id="arrowhead_arr_0WOCKxMX203GbQdhc136K" refX="1" refY="3" orient="auto" markerWidth="8" markerHeight="8"><path d="M2.91922181,1.64495663 L4.49787879,4.07365967 C4.64837316,4.30518948 4.58268096,4.61488128 4.35115115,4.76537565 C4.27004602,4.81809399 4.17538993,4.84615385 4.07865698,4.84615385 L0.921343022,4.84615385 C0.645200647,4.84615385 0.421343022,4.62229622 0.421343022,4.34615385 C0.421343022,4.24942089 0.44940288,4.1547648 0.502121214,4.07365967 L2.08077819,1.64495663 C2.23127257,1.41342682 2.54096436,1.34773462 2.77249418,1.498229 C2.83112579,1.53633954 2.88111126,1.58632502 2.91922181,1.64495663 Z" fill="#afb4b7" transform="translate(2.500000, 2.923077) rotate(90.000000) translate(-2.500000, -2.923077)"></path></marker><path style="stroke-width:2px;stroke:#afb4b7" stroke-linecap="round" marker-end="url(#arrowhead_arr_0WOCKxMX203GbQdhc136K)" d="M 1074 1925 L 1206 1925 C 1208 1925 1210 1927 1210 1929 L 1210 2001  " fill="none" pointer-events="stroke" stroke-linejoin="round"></path><path style="stroke-width:4px;stroke:transparent" d="M 1074 1925 L 1206 1925 C 1208 1925 1210 1927 1210 1929 L 1210 2001  " fill="none" pointer-events="stroke"></path><marker id="arrowhead_arr_W9a0W930xh06FzYTmtGIU" refX="1" refY="3" orient="auto" markerWidth="8" markerHeight="8"><path d="M2.91922181,1.64495663 L4.49787879,4.07365967 C4.64837316,4.30518948 4.58268096,4.61488128 4.35115115,4.76537565 C4.27004602,4.81809399 4.17538993,4.84615385 4.07865698,4.84615385 L0.921343022,4.84615385 C0.645200647,4.84615385 0.421343022,4.62229622 0.421343022,4.34615385 C0.421343022,4.24942089 0.44940288,4.1547648 0.502121214,4.07365967 L2.08077819,1.64495663 C2.23127257,1.41342682 2.54096436,1.34773462 2.77249418,1.498229 C2.83112579,1.53633954 2.88111126,1.58632502 2.91922181,1.64495663 Z" fill="#afb4b7" transform="translate(2.500000, 2.923077) rotate(90.000000) translate(-2.500000, -2.923077)"></path></marker><path style="stroke-width:2px;stroke:#afb4b7" stroke-linecap="round" marker-end="url(#arrowhead_arr_W9a0W930xh06FzYTmtGIU)" d="M 1480.5 2226 L 1480.5 2162.10625 M 1480.5 2100.89375 L 1480.5 2037  " fill="none" pointer-events="stroke" stroke-linejoin="round"></path><path style="stroke-width:4px;stroke:transparent" d="M 1480.5 2226 L 1480.5 2162.10625 M 1480.5 2100.89375 L 1480.5 2037  " fill="none" pointer-events="stroke"></path><path id="arr_W9a0W930xh06FzYTmtGIU-label" d="M 1480.5 2162.10625 L 1480.5 2100.89375  "></path><text font-size="8" dominant-baseline="middle"><textPath href="#arr_W9a0W930xh06FzYTmtGIU-label" alignment-baseline="middle" dominant-baseline="middle" startOffset="3">Client Request</textPath></text><marker id="arrowhead_arr_oPbeavkwYD8yGgSumktcL" refX="1" refY="3" orient="auto" markerWidth="8" markerHeight="8"><path d="M2.91922181,1.64495663 L4.49787879,4.07365967 C4.64837316,4.30518948 4.58268096,4.61488128 4.35115115,4.76537565 C4.27004602,4.81809399 4.17538993,4.84615385 4.07865698,4.84615385 L0.921343022,4.84615385 C0.645200647,4.84615385 0.421343022,4.62229622 0.421343022,4.34615385 C0.421343022,4.24942089 0.44940288,4.1547648 0.502121214,4.07365967 L2.08077819,1.64495663 C2.23127257,1.41342682 2.54096436,1.34773462 2.77249418,1.498229 C2.83112579,1.53633954 2.88111126,1.58632502 2.91922181,1.64495663 Z" fill="#afb4b7" transform="translate(2.500000, 2.923077) rotate(90.000000) translate(-2.500000, -2.923077)"></path></marker><path style="stroke-width:2px;stroke:#afb4b7" stroke-linecap="round" marker-end="url(#arrowhead_arr_oPbeavkwYD8yGgSumktcL)" d="M 1471.5 2032 L 1471.5 2091.35625 M 1471.5 2161.64375 L 1471.5 2221  " fill="none" pointer-events="stroke" stroke-linejoin="round"></path><path style="stroke-width:4px;stroke:transparent" d="M 1471.5 2032 L 1471.5 2091.35625 M 1471.5 2161.64375 L 1471.5 2221  " fill="none" pointer-events="stroke"></path><path id="arr_oPbeavkwYD8yGgSumktcL-label" d="M 1471.5 2161.64375 L 1471.5 2091.35625  "></path><text font-size="8" dominant-baseline="middle"><textPath href="#arr_oPbeavkwYD8yGgSumktcL-label" alignment-baseline="middle" dominant-baseline="middle" startOffset="3">Server Response</textPath></text><marker id="arrowhead_arr_CWi8ch27hI4TFSmHCiSCR" refX="1" refY="3" orient="auto" markerWidth="8" markerHeight="8"><path d="M2.91922181,1.64495663 L4.49787879,4.07365967 C4.64837316,4.30518948 4.58268096,4.61488128 4.35115115,4.76537565 C4.27004602,4.81809399 4.17538993,4.84615385 4.07865698,4.84615385 L0.921343022,4.84615385 C0.645200647,4.84615385 0.421343022,4.62229622 0.421343022,4.34615385 C0.421343022,4.24942089 0.44940288,4.1547648 0.502121214,4.07365967 L2.08077819,1.64495663 C2.23127257,1.41342682 2.54096436,1.34773462 2.77249418,1.498229 C2.83112579,1.53633954 2.88111126,1.58632502 2.91922181,1.64495663 Z" fill="#afb4b7" transform="translate(2.500000, 2.923077) rotate(90.000000) translate(-2.500000, -2.923077)"></path></marker><marker id="arrowhead_src_arr_CWi8ch27hI4TFSmHCiSCR" refX="4" refY="3" orient="auto" markerWidth="8" markerHeight="8"><path d="M2.91922181,1.64495663 L4.49787879,4.07365967 C4.64837316,4.30518948 4.58268096,4.61488128 4.35115115,4.76537565 C4.27004602,4.81809399 4.17538993,4.84615385 4.07865698,4.84615385 L0.921343022,4.84615385 C0.645200647,4.84615385 0.421343022,4.62229622 0.421343022,4.34615385 C0.421343022,4.24942089 0.44940288,4.1547648 0.502121214,4.07365967 L2.08077819,1.64495663 C2.23127257,1.41342682 2.54096436,1.34773462 2.77249418,1.498229 C2.83112579,1.53633954 2.88111126,1.58632502 2.91922181,1.64495663 Z" fill="#afb4b7" transform="translate(2.500000, 2.923077) rotate(270.000000) translate(-2.500000, -2.923077)"></path></marker><path style="stroke-width:2px;stroke:#afb4b7" stroke-linecap="round" marker-start="url(#arrowhead_src_arr_CWi8ch27hI4TFSmHCiSCR)" marker-end="url(#arrowhead_arr_CWi8ch27hI4TFSmHCiSCR)" d="M 1320 1891 L 1320 1862  " fill="none" pointer-events="stroke" stroke-linejoin="round"></path><path style="stroke-width:4px;stroke:transparent" d="M 1320 1891 L 1320 1862  " fill="none" pointer-events="stroke"></path><marker id="arrowhead_arr_Qb08ennHLnifKBiEmAxc3" refX="1" refY="3" orient="auto" markerWidth="8" markerHeight="8"><path d="M2.91922181,1.64495663 L4.49787879,4.07365967 C4.64837316,4.30518948 4.58268096,4.61488128 4.35115115,4.76537565 C4.27004602,4.81809399 4.17538993,4.84615385 4.07865698,4.84615385 L0.921343022,4.84615385 C0.645200647,4.84615385 0.421343022,4.62229622 0.421343022,4.34615385 C0.421343022,4.24942089 0.44940288,4.1547648 0.502121214,4.07365967 L2.08077819,1.64495663 C2.23127257,1.41342682 2.54096436,1.34773462 2.77249418,1.498229 C2.83112579,1.53633954 2.88111126,1.58632502 2.91922181,1.64495663 Z" fill="#afb4b7" transform="translate(2.500000, 2.923077) rotate(90.000000) translate(-2.500000, -2.923077)"></path></marker><path style="stroke-width:2px;stroke:#afb4b7" stroke-linecap="round" marker-end="url(#arrowhead_arr_Qb08ennHLnifKBiEmAxc3)" d="M 1480.5 1951 L 1480.5 1929 C 1480.5 1927 1478.5 1925 1476.5 1925 L 1441.84375 1925 M 1392.65625 1925 L 1354 1925  " fill="none" pointer-events="stroke" stroke-linejoin="round"></path><path style="stroke-width:4px;stroke:transparent" d="M 1480.5 1951 L 1480.5 1929 C 1480.5 1927 1478.5 1925 1476.5 1925 L 1441.84375 1925 M 1392.65625 1925 L 1354 1925  " fill="none" pointer-events="stroke"></path><path id="arr_Qb08ennHLnifKBiEmAxc3-label" d="M 1392.65625 1925 L 1441.84375 1925  "></path><text font-size="8" dominant-baseline="middle"><textPath href="#arr_Qb08ennHLnifKBiEmAxc3-label" alignment-baseline="middle" dominant-baseline="middle" startOffset="3">Img Upload</textPath></text><marker id="arrowhead_arr_XdL5eEU3kOiQTZ92xRFWs" refX="1" refY="3" orient="auto" markerWidth="8" markerHeight="8"><path d="M2.91922181,1.64495663 L4.49787879,4.07365967 C4.64837316,4.30518948 4.58268096,4.61488128 4.35115115,4.76537565 C4.27004602,4.81809399 4.17538993,4.84615385 4.07865698,4.84615385 L0.921343022,4.84615385 C0.645200647,4.84615385 0.421343022,4.62229622 0.421343022,4.34615385 C0.421343022,4.24942089 0.44940288,4.1547648 0.502121214,4.07365967 L2.08077819,1.64495663 C2.23127257,1.41342682 2.54096436,1.34773462 2.77249418,1.498229 C2.83112579,1.53633954 2.88111126,1.58632502 2.91922181,1.64495663 Z" fill="#afb4b7" transform="translate(2.500000, 2.923077) rotate(90.000000) translate(-2.500000, -2.923077)"></path></marker><marker id="arrowhead_src_arr_XdL5eEU3kOiQTZ92xRFWs" refX="4" refY="3" orient="auto" markerWidth="8" markerHeight="8"><path d="M2.91922181,1.64495663 L4.49787879,4.07365967 C4.64837316,4.30518948 4.58268096,4.61488128 4.35115115,4.76537565 C4.27004602,4.81809399 4.17538993,4.84615385 4.07865698,4.84615385 L0.921343022,4.84615385 C0.645200647,4.84615385 0.421343022,4.62229622 0.421343022,4.34615385 C0.421343022,4.24942089 0.44940288,4.1547648 0.502121214,4.07365967 L2.08077819,1.64495663 C2.23127257,1.41342682 2.54096436,1.34773462 2.77249418,1.498229 C2.83112579,1.53633954 2.88111126,1.58632502 2.91922181,1.64495663 Z" fill="#afb4b7" transform="translate(2.500000, 2.923077) rotate(270.000000) translate(-2.500000, -2.923077)"></path></marker><path style="stroke-width:2px;stroke:#afb4b7" stroke-linecap="round" marker-start="url(#arrowhead_src_arr_XdL5eEU3kOiQTZ92xRFWs)" marker-end="url(#arrowhead_arr_XdL5eEU3kOiQTZ92xRFWs)" d="M 1451 2250.5 L 1406.60625 2250.5 M 1364.39375 2250.5 L 1324 2250.5 C 1322 2250.5 1320 2248.5 1320 2246.5 L 1320 1982  " fill="none" pointer-events="stroke" stroke-linejoin="round"></path><path style="stroke-width:4px;stroke:transparent" d="M 1451 2250.5 L 1406.60625 2250.5 M 1364.39375 2250.5 L 1324 2250.5 C 1322 2250.5 1320 2248.5 1320 2246.5 L 1320 1982  " fill="none" pointer-events="stroke"></path><path id="arr_XdL5eEU3kOiQTZ92xRFWs-label" d="M 1364.39375 2250.5 L 1406.60625 2250.5  "></path><text font-size="8" dominant-baseline="middle"><textPath href="#arr_XdL5eEU3kOiQTZ92xRFWs-label" alignment-baseline="middle" dominant-baseline="middle" startOffset="3">Image Url</textPath></text><marker id="arrowhead_arr_QS2QqfJXiHrGfGWvkZVfb" refX="1" refY="3" orient="auto" markerWidth="8" markerHeight="8"><path d="M2.91922181,1.64495663 L4.49787879,4.07365967 C4.64837316,4.30518948 4.58268096,4.61488128 4.35115115,4.76537565 C4.27004602,4.81809399 4.17538993,4.84615385 4.07865698,4.84615385 L0.921343022,4.84615385 C0.645200647,4.84615385 0.421343022,4.62229622 0.421343022,4.34615385 C0.421343022,4.24942089 0.44940288,4.1547648 0.502121214,4.07365967 L2.08077819,1.64495663 C2.23127257,1.41342682 2.54096436,1.34773462 2.77249418,1.498229 C2.83112579,1.53633954 2.88111126,1.58632502 2.91922181,1.64495663 Z" fill="#afb4b7" transform="translate(2.500000, 2.923077) rotate(90.000000) translate(-2.500000, -2.923077)"></path></marker><marker id="arrowhead_src_arr_QS2QqfJXiHrGfGWvkZVfb" refX="4" refY="3" orient="auto" markerWidth="8" markerHeight="8"><path d="M2.91922181,1.64495663 L4.49787879,4.07365967 C4.64837316,4.30518948 4.58268096,4.61488128 4.35115115,4.76537565 C4.27004602,4.81809399 4.17538993,4.84615385 4.07865698,4.84615385 L0.921343022,4.84615385 C0.645200647,4.84615385 0.421343022,4.62229622 0.421343022,4.34615385 C0.421343022,4.24942089 0.44940288,4.1547648 0.502121214,4.07365967 L2.08077819,1.64495663 C2.23127257,1.41342682 2.54096436,1.34773462 2.77249418,1.498229 C2.83112579,1.53633954 2.88111126,1.58632502 2.91922181,1.64495663 Z" fill="#afb4b7" transform="translate(2.500000, 2.923077) rotate(270.000000) translate(-2.500000, -2.923077)"></path></marker><path style="stroke-width:2px;stroke:#afb4b7" stroke-linecap="round" marker-start="url(#arrowhead_src_arr_QS2QqfJXiHrGfGWvkZVfb)" marker-end="url(#arrowhead_arr_QS2QqfJXiHrGfGWvkZVfb)" d="M 1766 2255 L 1781 2255  " fill="none" pointer-events="stroke" stroke-linejoin="round"></path><path style="stroke-width:4px;stroke:transparent" d="M 1766 2255 L 1781 2255  " fill="none" pointer-events="stroke"></path><marker id="arrowhead_arr_0h29ZRv4hgxKbvWY7wIi2" refX="1" refY="3" orient="auto" markerWidth="8" markerHeight="8"><path d="M2.91922181,1.64495663 L4.49787879,4.07365967 C4.64837316,4.30518948 4.58268096,4.61488128 4.35115115,4.76537565 C4.27004602,4.81809399 4.17538993,4.84615385 4.07865698,4.84615385 L0.921343022,4.84615385 C0.645200647,4.84615385 0.421343022,4.62229622 0.421343022,4.34615385 C0.421343022,4.24942089 0.44940288,4.1547648 0.502121214,4.07365967 L2.08077819,1.64495663 C2.23127257,1.41342682 2.54096436,1.34773462 2.77249418,1.498229 C2.83112579,1.53633954 2.88111126,1.58632502 2.91922181,1.64495663 Z" fill="#afb4b7" transform="translate(2.500000, 2.923077) rotate(90.000000) translate(-2.500000, -2.923077)"></path></marker><path style="stroke-width:2px;stroke:#afb4b7" stroke-linecap="round" marker-end="url(#arrowhead_arr_0h29ZRv4hgxKbvWY7wIi2)" d="M 1676 2200 L 1629 2200  " fill="none" pointer-events="stroke" stroke-linejoin="round"></path><path style="stroke-width:4px;stroke:transparent" d="M 1676 2200 L 1629 2200  " fill="none" pointer-events="stroke"></path><marker id="arrowhead_arr_3AUI9lZpSJT8Dag8ggOlR" refX="1" refY="3" orient="auto" markerWidth="8" markerHeight="8"><path d="M2.91922181,1.64495663 L4.49787879,4.07365967 C4.64837316,4.30518948 4.58268096,4.61488128 4.35115115,4.76537565 C4.27004602,4.81809399 4.17538993,4.84615385 4.07865698,4.84615385 L0.921343022,4.84615385 C0.645200647,4.84615385 0.421343022,4.62229622 0.421343022,4.34615385 C0.421343022,4.24942089 0.44940288,4.1547648 0.502121214,4.07365967 L2.08077819,1.64495663 C2.23127257,1.41342682 2.54096436,1.34773462 2.77249418,1.498229 C2.83112579,1.53633954 2.88111126,1.58632502 2.91922181,1.64495663 Z" fill="#afb4b7" transform="translate(2.500000, 2.923077) rotate(90.000000) translate(-2.500000, -2.923077)"></path></marker><path style="stroke-width:2px;stroke:#afb4b7" stroke-linecap="round" marker-end="url(#arrowhead_arr_3AUI9lZpSJT8Dag8ggOlR)" d="M 1566 2310 L 1163.5 2310 C 1161.5 2310 1159.5 2312 1159.5 2314 L 1159.5 2331  " fill="none" pointer-events="stroke" stroke-linejoin="round"></path><path style="stroke-width:4px;stroke:transparent" d="M 1566 2310 L 1163.5 2310 C 1161.5 2310 1159.5 2312 1159.5 2314 L 1159.5 2331  " fill="none" pointer-events="stroke"></path><marker id="arrowhead_arr_rLOB9d9MyX2WPd83kxkRJ" refX="1" refY="3" orient="auto" markerWidth="8" markerHeight="8"><path d="M2.91922181,1.64495663 L4.49787879,4.07365967 C4.64837316,4.30518948 4.58268096,4.61488128 4.35115115,4.76537565 C4.27004602,4.81809399 4.17538993,4.84615385 4.07865698,4.84615385 L0.921343022,4.84615385 C0.645200647,4.84615385 0.421343022,4.62229622 0.421343022,4.34615385 C0.421343022,4.24942089 0.44940288,4.1547648 0.502121214,4.07365967 L2.08077819,1.64495663 C2.23127257,1.41342682 2.54096436,1.34773462 2.77249418,1.498229 C2.83112579,1.53633954 2.88111126,1.58632502 2.91922181,1.64495663 Z" fill="#afb4b7" transform="translate(2.500000, 2.923077) rotate(90.000000) translate(-2.500000, -2.923077)"></path></marker><path style="stroke-width:2px;stroke:#afb4b7" stroke-linecap="round" marker-end="url(#arrowhead_arr_rLOB9d9MyX2WPd83kxkRJ)" d="M 1150.5 2336 L 1150.5 2302  " fill="none" pointer-events="stroke" stroke-linejoin="round"></path><path style="stroke-width:4px;stroke:transparent" d="M 1150.5 2336 L 1150.5 2302  " fill="none" pointer-events="stroke"></path><marker id="arrowhead_arr_11g8UVLiPoIX5qhCWnSdT" refX="1" refY="3" orient="auto" markerWidth="8" markerHeight="8"><path d="M2.91922181,1.64495663 L4.49787879,4.07365967 C4.64837316,4.30518948 4.58268096,4.61488128 4.35115115,4.76537565 C4.27004602,4.81809399 4.17538993,4.84615385 4.07865698,4.84615385 L0.921343022,4.84615385 C0.645200647,4.84615385 0.421343022,4.62229622 0.421343022,4.34615385 C0.421343022,4.24942089 0.44940288,4.1547648 0.502121214,4.07365967 L2.08077819,1.64495663 C2.23127257,1.41342682 2.54096436,1.34773462 2.77249418,1.498229 C2.83112579,1.53633954 2.88111126,1.58632502 2.91922181,1.64495663 Z" fill="#afb4b7" transform="translate(2.500000, 2.923077) rotate(90.000000) translate(-2.500000, -2.923077)"></path></marker><path style="stroke-width:2px;stroke:#afb4b7" stroke-linecap="round" marker-end="url(#arrowhead_arr_11g8UVLiPoIX5qhCWnSdT)" d="M 1595 2171 L 1595 2094 C 1595 2092 1593 2090 1591 2090 L 1574 2090  " fill="none" pointer-events="stroke" stroke-linejoin="round"></path><path style="stroke-width:4px;stroke:transparent" d="M 1595 2171 L 1595 2094 C 1595 2092 1593 2090 1591 2090 L 1574 2090  " fill="none" pointer-events="stroke"></path><marker id="arrowhead_arr_QzQUJ6Nn6islB0WSW4gAr" refX="1" refY="3" orient="auto" markerWidth="8" markerHeight="8"><path d="M2.91922181,1.64495663 L4.49787879,4.07365967 C4.64837316,4.30518948 4.58268096,4.61488128 4.35115115,4.76537565 C4.27004602,4.81809399 4.17538993,4.84615385 4.07865698,4.84615385 L0.921343022,4.84615385 C0.645200647,4.84615385 0.421343022,4.62229622 0.421343022,4.34615385 C0.421343022,4.24942089 0.44940288,4.1547648 0.502121214,4.07365967 L2.08077819,1.64495663 C2.23127257,1.41342682 2.54096436,1.34773462 2.77249418,1.498229 C2.83112579,1.53633954 2.88111126,1.58632502 2.91922181,1.64495663 Z" fill="#afb4b7" transform="translate(2.500000, 2.923077) rotate(90.000000) translate(-2.500000, -2.923077)"></path></marker><path style="stroke-width:2px;stroke:#afb4b7" stroke-linecap="round" marker-end="url(#arrowhead_arr_QzQUJ6Nn6islB0WSW4gAr)" d="M 1511 2090 L 1493.5 2090 C 1491.5 2090 1489.5 2088 1489.5 2086 L 1489.5 2037  " fill="none" pointer-events="stroke" stroke-linejoin="round"></path><path style="stroke-width:4px;stroke:transparent" d="M 1511 2090 L 1493.5 2090 C 1491.5 2090 1489.5 2088 1489.5 2086 L 1489.5 2037  " fill="none" pointer-events="stroke"></path></g></svg>